<?xml version="1.0" encoding="utf-8"?>
<!-- Generator: Adobe Illustrator 26.1.0, SVG Export Plug-In . SVG Version: 6.00 Build 0)  -->
<svg version="1.1" xmlns="http://www.w3.org/2000/svg" xmlns:xlink="http://www.w3.org/1999/xlink" x="0px" y="0px"
	 viewBox="0 0 1648.2 606" style="enable-background:new 0 0 1648.2 606;" xml:space="preserve">
<style type="text/css">
	.st0{display:none;}
	.st1{display:inline;fill:#EBF2FF;}
	.st2{fill:#CCDEFE;}
	.st3{fill:#EBF2FF;}
	.st4{fill:#ACC8FE;}
	.st5{fill:#FFFFFF;}
	.st6{display:inline;}
	.st7{fill:#175DA3;}
</style>
<g id="Background" class="st0">
	<rect x="-485.9" y="-409.1" class="st1" width="2600" height="1621"/>
</g>
<g id="Shadow">
	<polygon class="st2" points="314.6,537.9 412,530.3 473.9,494.6 448.5,479.7 490.7,455.3 487.6,438.7 510,425.6 508.4,414.1 
		478.1,396.6 389.2,424.2 391.7,436.6 274.3,504.3 276.1,515.8 	"/>
	<path class="st2" d="M1003.9,355.2c0,0-10.2-21.3-50.3-41.7l-278.9,73.1c0,0-20.9,8.9-41.8,30.3c0,0-29.2,35.2,16.4,71.3
		c0,0,45,33.4,93,36.1c0,0,48.4,4.7,91.2-18.8L971,426.2C971,426.2,1025.9,399.8,1003.9,355.2z"/>
	<path class="st3" d="M924.5,371.6c-0.1,0.4-0.2,0.8-0.4,1.3c-3.7,8.4-24,21.9-24,21.9l-105.2,60.4c-33.2,19.1-59,12.5-59,12.5
		c-30.2-9.1-28.1-18.4-28.1-18.4c7.1-13.8,26.1-24.4,26.1-24.4l31.7-18.3l124.4-55.2C925.7,359.4,924.5,371.6,924.5,371.6z"/>
	<polygon class="st2" points="1158.9,362.8 1120,385.5 1121.6,396.9 1219.4,493.1 1280.5,528.3 1314.8,508.6 1317,510.4 1356,487.4 
		1354.2,475.6 1330.9,462.7 1328.9,444.7 1240.4,410.5 	"/>
</g>
<g id="Fill">
	<g>
		<polygon class="st4" points="1313.5,375.3 1313.5,436.4 1290.6,423.2 1290.6,475.1 1235.7,443.3 1235.7,391.5 1118,323.5 
			1118,265.2 1207.8,90.6 1270,126.5 1182.6,299.7 1235.7,330.4 1235.7,285.2 1235.7,249.3 1235.7,245.2 1290.6,276.9 1290.6,362.1 
					"/>
		<polygon class="st4" points="1313.5,436.4 1313.5,375.3 1352.6,352.7 1352.6,413.8 1329.8,427 		"/>
		<polygon class="st5" points="1313.5,375.3 1290.6,362.1 1329.8,339.5 1352.6,352.7 		"/>
		<polygon class="st4" points="1290.6,362.1 1290.6,276.9 1329.8,254.3 1329.8,339.5 		"/>
		<polygon class="st5" points="1235.7,330.4 1182.6,299.7 1221.7,277.1 1235.7,285.2 		"/>
		<polygon class="st4" points="1290.6,423.2 1313.5,436.4 1329.8,427 1329.8,452.5 1290.6,475.1 		"/>
		<polygon class="st5" points="1270,126.5 1207.8,90.6 1246.9,68 1309.1,103.9 		"/>
		<polygon class="st4" points="1182.6,299.7 1270,126.5 1309.1,103.9 1238.7,243.4 1235.7,245.2 1235.7,249.3 1221.7,277.1 		"/>
		<polygon class="st5" points="1290.6,276.9 1235.7,245.2 1238.7,243.4 1274.8,222.6 1329.8,254.3 		"/>
	</g>
	<g>
		<polygon class="st4" points="663.5,384 644.8,371.6 644.8,326.4 663.5,338.8 		"/>
		<polygon class="st4" points="644.8,371.6 631.4,359.1 631.4,313.9 644.8,326.4 		"/>
		<polygon class="st4" points="631.4,359.1 623.3,346.5 623.3,301.3 631.4,313.9 		"/>
		<polygon class="st4" points="623.3,346.5 620.5,333.8 620.5,288.6 623.3,301.3 		"/>
		<polygon class="st4" points="1005,261.8 1002.8,274.4 1002.8,229.2 1005,216.7 		"/>
		<polygon class="st4" points="1002.8,274.4 995.5,286.6 995.5,241.4 1002.8,229.2 		"/>
		<polygon class="st4" points="995.5,286.6 983.3,298.4 983.3,253.3 995.5,241.4 		"/>
		<polygon class="st4" points="983.3,298.4 966.1,310 966.1,264.8 983.3,253.3 		"/>
		<polygon class="st4" points="966.1,310 833.5,386.5 833.5,341.3 966.1,264.8 		"/>
		<polygon class="st4" points="833.5,386.5 813.6,396.4 813.6,351.2 833.5,341.3 		"/>
		<polygon class="st4" points="813.6,396.4 793,403.5 793,358.3 813.6,351.2 		"/>
		<polygon class="st4" points="793,403.5 771.9,407.6 771.9,362.4 793,358.3 		"/>
		<polygon class="st4" points="771.9,407.6 750.1,408.9 750.1,363.7 771.9,362.4 		"/>
		<polygon class="st4" points="750.1,408.9 728.2,407.2 728.2,362 750.1,363.7 		"/>
		<polygon class="st4" points="728.2,407.2 706.4,402.5 706.4,357.3 728.2,362 		"/>
		<polygon class="st4" points="706.4,402.5 684.8,394.7 684.8,349.6 706.4,357.3 		"/>
		<polygon class="st4" points="684.8,394.7 663.5,384 663.5,338.8 684.8,349.6 		"/>
		<path class="st5" d="M733.7,314.9l18.5,0.9l19.7-4.6l20.7-9.7l104.5-60.3l3-2.2l8.6-6.1l5.2-3.7l6.4-9.2l1.5-2.2l-1.5-10.7
			l-11.6-10l-17.3-6.7l-18.5-0.9l-19.7,4.6l-20.7,9.7l-104.5,60.3l-16.8,12l-7.9,11.4l1.5,10.7l6.4,5.5l5.2,4.5l8.6,3.3L733.7,314.9
			z M663.5,338.8l-18.7-12.4l-13.4-12.5l-8.1-12.6l-2.8-12.7l2.3-12.6l7.2-12.2l12.1-11.8l17-11.4l132.5-76.5l20-9.9l20.6-7
			l21.2-4.1l21.8-1.3l22,1.7l21.8,4.7l21.6,7.7l21.4,10.8l18.7,12.4l13.5,12.5l8.2,12.5l2.9,12.6l-2.2,12.5l-7.2,12.2l-12.2,11.9
			l-17.2,11.6l-132.5,76.5l-20,9.9l-20.6,7l-21.2,4.1l-21.8,1.3l-22-1.7l-21.8-4.7l-21.6-7.7L663.5,338.8z"/>
		<polygon class="st4" points="900.1,239 891.4,235.7 891.4,190.5 908.7,197.2 908.7,232.9 		"/>
		<polygon class="st4" points="891.4,235.7 872.9,234.8 872.9,189.6 891.4,190.5 		"/>
		<polygon class="st4" points="872.9,234.8 853.2,239.4 853.2,194.2 872.9,189.6 		"/>
		<polygon class="st4" points="853.2,239.4 832.5,249.1 832.5,203.9 853.2,194.2 		"/>
		<polygon class="st4" points="832.5,249.1 728.1,309.4 728.1,264.2 832.5,203.9 		"/>
		<polygon class="st4" points="728.1,309.4 725,311.6 716.4,308.2 711.2,303.8 711.2,276.2 728.1,264.2 		"/>
		<polygon class="st4" points="908.7,197.2 920.3,207.2 920.3,220.1 913.9,229.2 908.7,232.9 		"/>
		<polygon class="st4" points="703.3,287.6 711.2,276.2 711.2,303.8 704.8,298.3 		"/>
		<polygon class="st4" points="920.3,207.2 921.9,217.9 920.3,220.1 		"/>
	</g>
	<g>
		<polygon class="st4" points="506.9,288.9 506.9,350 484.1,363.2 484.1,415.1 429.1,446.8 429.1,395 390,417.5 311.4,462.9 
			311.4,404.6 401.2,126.3 463.4,90.4 426.9,204.7 415.5,240.7 392.5,312.7 376,364.5 429.1,333.8 429.1,248.6 484.1,216.9 
			484.1,275.7 484.1,302.1 		"/>
		<polygon class="st4" points="429.1,395 429.1,446.8 390,424.2 390,417.5 		"/>
		<polygon class="st5" points="506.9,288.9 484.1,302.1 484.1,275.7 		"/>
		<polygon class="st4" points="429.1,248.6 429.1,333.8 392.5,312.7 415.5,240.7 		"/>
		<polygon class="st4" points="311.4,404.6 311.4,462.9 272.3,440.3 272.3,382 		"/>
		<polygon class="st4" points="401.2,126.3 311.4,404.6 272.3,382 362.1,103.7 		"/>
		<polygon class="st5" points="429.1,333.8 376,364.5 392.5,312.7 		"/>
		<polygon class="st5" points="463.4,90.4 401.2,126.3 362.1,103.7 424.3,67.8 		"/>
		<polygon class="st5" points="484.1,216.9 429.1,248.6 415.5,240.7 426.9,204.7 444.9,194.3 		"/>
	</g>
</g>
<g id="Text" class="st0">
	<g class="st6">
		<path class="st7" d="M435.4,693.4c-5.8-1.7-10-3.7-12.6-6.1c-2.6-2.4-4-5.4-4-9c0-4,1.6-7.4,4.8-10c3.2-2.6,7.4-4,12.6-4
			c3.5,0,6.6,0.7,9.4,2c2.8,1.4,4.9,3.2,6.4,5.6c1.5,2.4,2.3,5,2.3,7.8h-6.8c0-3.1-1-5.5-3-7.3c-2-1.8-4.7-2.7-8.3-2.7
			c-3.3,0-5.9,0.7-7.8,2.2c-1.9,1.5-2.8,3.5-2.8,6.1c0,2.1,0.9,3.9,2.7,5.3c1.8,1.4,4.8,2.8,9,4c4.3,1.2,7.6,2.5,10,4
			c2.4,1.4,4.2,3.1,5.3,5c1.2,1.9,1.7,4.2,1.7,6.8c0,4.1-1.6,7.5-4.9,10s-7.6,3.7-13,3.7c-3.5,0-6.8-0.7-9.8-2c-3-1.3-5.4-3.2-7-5.5
			c-1.7-2.3-2.5-5-2.5-8h6.8c0,3.1,1.1,5.5,3.4,7.3c2.3,1.8,5.3,2.7,9.2,2.7c3.6,0,6.3-0.7,8.2-2.2c1.9-1.5,2.8-3.4,2.8-5.9
			s-0.9-4.4-2.6-5.8C443.2,696,440,694.7,435.4,693.4z"/>
		<path class="st7" d="M460.3,696.8c0-3.7,0.7-7.1,2.2-10.1c1.5-3,3.5-5.3,6.1-6.9c2.6-1.6,5.6-2.4,8.9-2.4c5.2,0,9.4,1.8,12.6,5.4
			c3.2,3.6,4.8,8.4,4.8,14.3v0.5c0,3.7-0.7,7-2.1,10c-1.4,2.9-3.4,5.2-6.1,6.9c-2.6,1.6-5.7,2.5-9.1,2.5c-5.2,0-9.3-1.8-12.5-5.4
			c-3.2-3.6-4.8-8.3-4.8-14.2V696.8z M466.9,697.6c0,4.2,1,7.6,2.9,10.2c2,2.6,4.6,3.8,7.9,3.8c3.3,0,5.9-1.3,7.9-3.9
			c1.9-2.6,2.9-6.2,2.9-10.9c0-4.2-1-7.6-3-10.1c-2-2.6-4.6-3.9-7.9-3.9c-3.2,0-5.8,1.3-7.8,3.8
			C467.8,689.2,466.9,692.8,466.9,697.6z"/>
		<path class="st7" d="M521.5,684c-1-0.2-2.1-0.2-3.2-0.2c-4.3,0-7.2,1.8-8.7,5.4v27h-6.5v-38h6.3l0.1,4.4c2.1-3.4,5.2-5.1,9.1-5.1
			c1.3,0,2.2,0.2,2.9,0.5V684z"/>
		<path class="st7" d="M545.9,684c-1-0.2-2.1-0.2-3.2-0.2c-4.3,0-7.2,1.8-8.7,5.4v27h-6.5v-38h6.3l0.1,4.4c2.1-3.4,5.2-5.1,9.1-5.1
			c1.3,0,2.2,0.2,2.9,0.5V684z"/>
		<path class="st7" d="M564.3,706.6l8.9-28.5h7L564.8,722c-2.4,6.3-6.1,9.5-11.3,9.5l-1.2-0.1l-2.4-0.5v-5.3l1.8,0.1
			c2.2,0,3.9-0.4,5.2-1.3c1.2-0.9,2.2-2.5,3-4.9l1.4-3.9l-13.6-37.6h7.1L564.3,706.6z"/>
		<path class="st7" d="M585.7,726.4l-3.7-2.5c2.2-3.1,3.4-6.2,3.4-9.5v-5.9h6.4v5.1c0,2.4-0.6,4.7-1.7,7.1
			C588.9,723,587.4,724.9,585.7,726.4z"/>
		<path class="st7" d="M626.7,668.9v9.2h7.1v5h-7.1v23.6c0,1.5,0.3,2.7,0.9,3.4s1.7,1.1,3.2,1.1c0.8,0,1.8-0.1,3.1-0.4v5.2
			c-1.7,0.5-3.4,0.7-5,0.7c-2.9,0-5.1-0.9-6.6-2.6c-1.5-1.8-2.2-4.3-2.2-7.5v-23.6h-6.9v-5h6.9v-9.2H626.7z"/>
		<path class="st7" d="M647.9,682.7c2.9-3.5,6.6-5.3,11.2-5.3c8,0,12.1,4.5,12.2,13.6v25.1h-6.5V691c0-2.7-0.7-4.8-1.9-6.1
			c-1.2-1.3-3.1-2-5.7-2c-2.1,0-4,0.6-5.6,1.7c-1.6,1.1-2.8,2.6-3.7,4.4v27.1h-6.5v-54h6.5V682.7z"/>
		<path class="st7" d="M696.8,716.9c-5.2,0-9.4-1.7-12.6-5.1c-3.2-3.4-4.9-7.9-4.9-13.6V697c0-3.8,0.7-7.1,2.2-10.1
			c1.4-3,3.5-5.3,6-7c2.6-1.7,5.4-2.5,8.4-2.5c4.9,0,8.8,1.6,11.5,4.9c2.7,3.3,4.1,7.9,4.1,14v2.7h-25.8c0.1,3.8,1.2,6.8,3.3,9.1
			c2.1,2.3,4.8,3.5,8,3.5c2.3,0,4.2-0.5,5.8-1.4c1.6-0.9,3-2.2,4.2-3.7l4,3.1C708,714.4,703.2,716.9,696.8,716.9z M696,682.8
			c-2.6,0-4.8,1-6.6,2.9c-1.8,1.9-2.9,4.6-3.3,8h19.1v-0.5c-0.2-3.3-1.1-5.9-2.7-7.7C700.9,683.7,698.7,682.8,696,682.8z"/>
		<path class="st7" d="M769.1,697.6c0,5.8-1.3,10.5-4,14c-2.6,3.5-6.2,5.3-10.8,5.3c-4.6,0-8.2-1.5-10.9-4.4v18.3H737v-52.7h5.9
			l0.3,4.2c2.6-3.3,6.3-4.9,11-4.9c4.6,0,8.2,1.7,10.8,5.2c2.7,3.4,4,8.2,4,14.4V697.6z M762.6,696.8c0-4.3-0.9-7.7-2.7-10.2
			c-1.8-2.5-4.3-3.7-7.5-3.7c-3.9,0-6.9,1.7-8.9,5.2v18.2c1.9,3.5,4.9,5.2,8.9,5.2c3.1,0,5.6-1.2,7.4-3.7
			C761.7,705.4,762.6,701.7,762.6,696.8z"/>
		<path class="st7" d="M800.9,716.2c-0.4-0.8-0.7-2.1-0.9-4c-3,3.1-6.6,4.7-10.8,4.7c-3.8,0-6.8-1.1-9.2-3.2
			c-2.4-2.1-3.6-4.8-3.6-8.1c0-4,1.5-7,4.5-9.2c3-2.2,7.2-3.3,12.7-3.3h6.3v-3c0-2.3-0.7-4.1-2-5.4c-1.4-1.3-3.4-2-6-2
			c-2.3,0-4.3,0.6-5.8,1.8c-1.6,1.2-2.4,2.6-2.4,4.3h-6.5c0-1.9,0.7-3.7,2-5.5c1.3-1.8,3.2-3.2,5.5-4.2c2.3-1,4.8-1.5,7.6-1.5
			c4.4,0,7.8,1.1,10.3,3.3c2.5,2.2,3.8,5.2,3.9,9.1v17.5c0,3.5,0.4,6.3,1.3,8.3v0.6H800.9z M790.1,711.2c2,0,4-0.5,5.8-1.6
			s3.2-2.4,4-4.1v-7.8h-5.1c-8,0-12,2.3-12,7c0,2,0.7,3.6,2,4.8C786.2,710.6,788,711.2,790.1,711.2z"/>
		<path class="st7" d="M815,696.8c0-5.9,1.4-10.6,4.1-14.2c2.7-3.5,6.4-5.3,10.9-5.3c4.6,0,8.3,1.6,10.9,4.9l0.3-4.2h5.9v37.1
			c0,4.9-1.5,8.8-4.4,11.6c-2.9,2.8-6.8,4.3-11.8,4.3c-2.7,0-5.4-0.6-8.1-1.8c-2.6-1.2-4.6-2.8-6-4.8l3.4-3.9
			c2.8,3.4,6.2,5.2,10.2,5.2c3.2,0,5.6-0.9,7.4-2.7c1.8-1.8,2.7-4.3,2.7-7.5v-3.3c-2.6,3-6.2,4.5-10.7,4.5c-4.5,0-8.1-1.8-10.8-5.4
			C816.4,707.9,815,703,815,696.8z M821.5,697.6c0,4.3,0.9,7.7,2.6,10.1c1.8,2.4,4.2,3.7,7.4,3.7c4.1,0,7.1-1.9,9-5.6v-17.4
			c-2-3.6-5-5.4-9-5.4c-3.2,0-5.6,1.2-7.4,3.7C822.4,689.1,821.5,692.7,821.5,697.6z"/>
		<path class="st7" d="M872.7,716.9c-5.2,0-9.4-1.7-12.6-5.1c-3.2-3.4-4.9-7.9-4.9-13.6V697c0-3.8,0.7-7.1,2.2-10.1
			c1.4-3,3.5-5.3,6-7c2.6-1.7,5.4-2.5,8.4-2.5c4.9,0,8.8,1.6,11.5,4.9c2.7,3.3,4.1,7.9,4.1,14v2.7h-25.8c0.1,3.8,1.2,6.8,3.3,9.1
			c2.1,2.3,4.8,3.5,8,3.5c2.3,0,4.2-0.5,5.8-1.4c1.6-0.9,3-2.2,4.2-3.7l4,3.1C883.9,714.4,879.1,716.9,872.7,716.9z M871.9,682.8
			c-2.6,0-4.8,1-6.6,2.9c-1.8,1.9-2.9,4.6-3.3,8h19.1v-0.5c-0.2-3.3-1.1-5.9-2.7-7.7C876.8,683.7,874.6,682.8,871.9,682.8z"/>
		<path class="st7" d="M919.1,678.1l0.2,4.8c2.9-3.7,6.7-5.5,11.4-5.5c8,0,12.1,4.5,12.2,13.6v25.1h-6.5V691c0-2.7-0.7-4.8-1.9-6.1
			c-1.2-1.3-3.1-2-5.7-2c-2.1,0-4,0.6-5.6,1.7s-2.8,2.6-3.7,4.4v27.1h-6.5v-38H919.1z"/>
		<path class="st7" d="M950.9,696.8c0-3.7,0.7-7.1,2.2-10.1c1.5-3,3.5-5.3,6.1-6.9c2.6-1.6,5.6-2.4,8.9-2.4c5.2,0,9.4,1.8,12.6,5.4
			c3.2,3.6,4.8,8.4,4.8,14.3v0.5c0,3.7-0.7,7-2.1,10c-1.4,2.9-3.4,5.2-6.1,6.9c-2.6,1.6-5.7,2.5-9.1,2.5c-5.2,0-9.3-1.8-12.5-5.4
			c-3.2-3.6-4.8-8.3-4.8-14.2V696.8z M957.5,697.6c0,4.2,1,7.6,2.9,10.2c2,2.6,4.6,3.8,7.9,3.8c3.3,0,5.9-1.3,7.9-3.9
			c1.9-2.6,2.9-6.2,2.9-10.9c0-4.2-1-7.6-3-10.1c-2-2.6-4.6-3.9-7.9-3.9c-3.2,0-5.8,1.3-7.8,3.8
			C958.4,689.2,957.5,692.8,957.5,697.6z"/>
		<path class="st7" d="M1002.5,668.9v9.2h7.1v5h-7.1v23.6c0,1.5,0.3,2.7,0.9,3.4c0.6,0.8,1.7,1.1,3.2,1.1c0.8,0,1.8-0.1,3.1-0.4v5.2
			c-1.7,0.5-3.4,0.7-5,0.7c-2.9,0-5.1-0.9-6.6-2.6c-1.5-1.8-2.2-4.3-2.2-7.5v-23.6h-6.9v-5h6.9v-9.2H1002.5z"/>
		<path class="st7" d="M1038.3,716.2v-33h-6v-5h6v-3.9c0-4.1,1.1-7.2,3.3-9.5c2.2-2.2,5.3-3.3,9.2-3.3c1.5,0,3,0.2,4.5,0.6l-0.4,5.2
			c-1.1-0.2-2.3-0.3-3.5-0.3c-2.1,0-3.7,0.6-4.9,1.9c-1.1,1.2-1.7,3-1.7,5.3v4h8.1v5h-8.1v33H1038.3z"/>
		<path class="st7" d="M1058.3,696.8c0-3.7,0.7-7.1,2.2-10.1c1.5-3,3.5-5.3,6.1-6.9c2.6-1.6,5.6-2.4,8.9-2.4c5.2,0,9.4,1.8,12.6,5.4
			c3.2,3.6,4.8,8.4,4.8,14.3v0.5c0,3.7-0.7,7-2.1,10c-1.4,2.9-3.4,5.2-6.1,6.9c-2.6,1.6-5.7,2.5-9.1,2.5c-5.2,0-9.3-1.8-12.5-5.4
			c-3.2-3.6-4.8-8.3-4.8-14.2V696.8z M1064.9,697.6c0,4.2,1,7.6,2.9,10.2c2,2.6,4.6,3.8,7.9,3.8c3.3,0,5.9-1.3,7.9-3.9
			c1.9-2.6,2.9-6.2,2.9-10.9c0-4.2-1-7.6-3-10.1c-2-2.6-4.6-3.9-7.9-3.9c-3.2,0-5.8,1.3-7.8,3.8S1064.9,692.8,1064.9,697.6z"/>
		<path class="st7" d="M1124.6,712.4c-2.5,3-6.2,4.5-11.1,4.5c-4.1,0-7.1-1.2-9.3-3.5c-2.1-2.4-3.2-5.8-3.2-10.5v-24.8h6.5v24.6
			c0,5.8,2.3,8.6,7,8.6c5,0,8.3-1.9,9.9-5.6v-27.7h6.5v38h-6.2L1124.6,712.4z"/>
		<path class="st7" d="M1147,678.1l0.2,4.8c2.9-3.7,6.7-5.5,11.4-5.5c8,0,12.1,4.5,12.2,13.6v25.1h-6.5V691c0-2.7-0.7-4.8-1.9-6.1
			c-1.2-1.3-3.1-2-5.7-2c-2.1,0-4,0.6-5.6,1.7c-1.6,1.1-2.8,2.6-3.7,4.4v27.1h-6.5v-38H1147z"/>
		<path class="st7" d="M1178.9,696.8c0-5.8,1.4-10.5,4.1-14.1c2.8-3.6,6.4-5.3,10.9-5.3c4.5,0,8,1.5,10.6,4.6v-19.8h6.5v54h-6
			l-0.3-4.1c-2.6,3.2-6.2,4.8-10.9,4.8c-4.4,0-8-1.8-10.8-5.4c-2.8-3.6-4.2-8.3-4.2-14.1V696.8z M1185.5,697.6
			c0,4.3,0.9,7.7,2.7,10.1c1.8,2.4,4.2,3.7,7.4,3.7c4.1,0,7.1-1.9,9-5.6v-17.5c-1.9-3.6-4.9-5.4-9-5.4c-3.2,0-5.7,1.2-7.5,3.7
			C1186.3,689.1,1185.5,692.7,1185.5,697.6z"/>
	</g>
</g>
<g id="Outline">
	<g>
		<path class="st7" d="M1006.2,216.4C1006.2,216.4,1006.2,216.4,1006.2,216.4l-2.9-12.6c0-0.1-0.1-0.1-0.1-0.2c0-0.1,0-0.1-0.1-0.2
			l-8.2-12.5c0,0-0.1-0.1-0.1-0.1c0,0-0.1-0.1-0.1-0.1l-13.5-12.5c0,0-0.1,0-0.1-0.1c0,0,0-0.1-0.1-0.1l-18.7-12.4c0,0,0,0-0.1,0
			c0,0,0,0-0.1,0l-21.4-10.8c0,0,0,0-0.1,0c0,0,0,0-0.1,0l-21.6-7.7c0,0-0.1,0-0.1,0c0,0,0,0-0.1,0l-21.8-4.7c0,0-0.1,0-0.1,0
			c0,0-0.1,0-0.1,0l-22-1.7c0,0-0.1,0-0.1,0c0,0-0.1,0-0.1,0l-21.8,1.3c0,0-0.1,0-0.1,0c0,0-0.1,0-0.1,0l-21.2,4.1c0,0-0.1,0-0.1,0
			c0,0-0.1,0-0.1,0l-20.6,7c0,0,0,0-0.1,0c0,0-0.1,0-0.1,0l-20,9.9c0,0,0,0,0,0c0,0,0,0,0,0l-132.5,76.5c0,0,0,0,0,0c0,0,0,0,0,0
			l-17,11.4c0,0-0.1,0.1-0.1,0.1c0,0-0.1,0-0.1,0.1L629.1,263c0,0-0.1,0.1-0.1,0.1c0,0-0.1,0.1-0.1,0.1l-7.2,12.2
			c0,0.1,0,0.1-0.1,0.2c0,0.1-0.1,0.1-0.1,0.2l-2.3,12.6c0,0,0,0,0,0l0,0c0,0,0,0.1,0,0.1c0,0,0,0.1,0,0.1v45.2c0,0,0,0.1,0,0.1
			c0,0,0,0.1,0,0.1l2.8,12.7c0,0.1,0.1,0.3,0.2,0.4c0,0,0,0,0,0l8.1,12.6c0.1,0.1,0.1,0.2,0.2,0.2c0,0,0,0,0,0l0,0c0,0,0,0,0,0
			l13.4,12.5c0,0,0.1,0,0.1,0.1c0,0,0,0.1,0.1,0.1l18.7,12.4c0,0,0.1,0,0.1,0c0,0,0,0,0,0l21.4,10.8c0,0,0.1,0,0.1,0c0,0,0,0,0,0
			l21.6,7.7c0,0,0.1,0,0.1,0c0,0,0,0,0.1,0l21.8,4.7c0,0,0.1,0,0.1,0c0,0,0,0,0,0l22,1.7c0,0,0.1,0,0.1,0c0,0,0,0,0,0c0,0,0,0,0,0
			c0,0,0,0,0,0c0,0,0,0,0,0c0,0,0,0,0.1,0l21.8-1.3c0,0,0,0,0,0c0,0,0.1,0,0.1,0l21.2-4.1c0,0,0,0,0.1,0c0,0,0.1,0,0.1,0l20.6-7
			c0,0,0,0,0,0c0,0,0.1,0,0.1,0l20-9.9c0,0,0,0,0,0c0,0,0,0,0,0l132.5-76.5c0,0,0,0,0,0c0,0,0,0,0,0l17.2-11.6c0,0,0-0.1,0.1-0.1
			c0,0,0.1,0,0.1-0.1l12.2-11.9c0.1-0.1,0.2-0.2,0.2-0.3l7.2-12.2c0,0,0,0,0,0c0.1-0.1,0.1-0.3,0.2-0.4l2.2-12.5c0,0,0-0.1,0-0.1
			c0,0,0-0.1,0-0.1v-45.2c0,0,0-0.1,0-0.1C1006.2,216.5,1006.2,216.4,1006.2,216.4z M994.6,285.8l-12,11.7l-17.1,11.5l-132.5,76.5
			l-19.8,9.9l-20.4,7l-21,4.1l-21.6,1.3l-21.8-1.7l-21.6-4.7l-21.4-7.7l-21.2-10.7l-18.6-12.3l-13.2-12.3l-7.9-12.3l-2.7-12.4v-33.6
			l0.3,1.5c0,0.1,0.1,0.3,0.2,0.4c0,0,0,0,0,0l8.1,12.6c0.1,0.1,0.1,0.2,0.2,0.2c0,0,0,0,0,0l0,0c0,0,0,0,0,0l13.4,12.5
			c0,0,0.1,0,0.1,0.1c0,0,0,0.1,0.1,0.1l18.7,12.4c0,0,0.1,0,0.1,0c0,0,0,0,0,0l21.4,10.8c0,0,0.1,0,0.1,0c0,0,0,0,0,0l21.6,7.7
			c0,0,0.1,0,0.1,0c0,0,0,0,0.1,0l21.8,4.7c0,0,0.1,0,0.1,0c0,0,0,0,0,0l22,1.7c0,0,0.1,0,0.1,0c0,0,0,0,0,0c0,0,0,0,0,0
			c0,0,0,0,0,0c0,0,0,0,0,0c0,0,0,0,0.1,0l21.8-1.3c0,0,0,0,0,0c0,0,0.1,0,0.1,0l21.2-4.1c0,0,0,0,0.1,0c0,0,0.1,0,0.1,0l20.6-7
			c0,0,0,0,0,0c0,0,0.1,0,0.1,0l20-9.9c0,0,0,0,0,0c0,0,0,0,0,0l132.5-76.5c0,0,0,0,0,0c0,0,0,0,0,0l17.2-11.6c0,0,0-0.1,0.1-0.1
			c0,0,0.1,0,0.1-0.1l12.2-11.9c0.1-0.1,0.2-0.2,0.2-0.3l7.1-12v31.7l-2.1,12.2L994.6,285.8z M631,264.6l11.9-11.6l16.9-11.3
			l132.5-76.5l19.8-9.9l20.4-7l21-4.1L875,143l21.8,1.7l21.6,4.7l21.4,7.7l21.2,10.7l18.6,12.3l13.3,12.3l8,12.2l2.8,12.2l-2.1,12
			l-7,11.9l-12,11.7l-17.1,11.5l-132.5,76.5l-19.8,9.9l-20.4,7l-21,4.1l-21.6,1.3l-21.8-1.7l-21.6-4.7l-21.4-7.7l-21.2-10.7
			l-18.6-12.3l-13.2-12.3l-7.9-12.3l-2.7-12.2l2.2-12.1L631,264.6z"/>
		<path class="st7" d="M702.1,287.3c0,0.1,0,0.2,0,0.3c0,0.1,0,0.1,0,0.2l1.5,10.7c0,0.1,0,0.1,0.1,0.2c0,0.1,0,0.1,0.1,0.2
			c0.1,0.1,0.2,0.3,0.3,0.4c0,0,0,0,0,0l6.4,5.5l5.2,4.5c0.1,0.1,0.2,0.1,0.3,0.2c0,0,0.1,0,0.1,0.1l8.6,3.3l8.7,3.4
			c0.1,0,0.2,0,0.2,0c0,0,0.1,0,0.1,0l18.5,0.9c0,0,0,0,0.1,0c0,0,0,0,0,0c0.1,0,0.2,0,0.3,0l19.7-4.6c0,0,0,0,0,0l0,0c0,0,0,0,0,0
			c0.1,0,0.2,0,0.2-0.1l20.7-9.7c0,0,0,0,0,0c0,0,0,0,0.1,0l104.5-60.3c0,0,0,0,0,0c0,0,0,0,0.1,0l3-2.1c0,0,0,0,0,0l0,0
			c0,0,0,0,0,0l8.6-6.1l5.2-3.7c0,0,0,0,0,0c0.1-0.1,0.2-0.2,0.3-0.3l6.4-9.2l1.5-2.2c0-0.1,0-0.1,0.1-0.2c0-0.1,0.1-0.2,0.1-0.3
			c0-0.1,0-0.2,0-0.3c0-0.1,0-0.1,0-0.2l-1.5-10.7c0-0.1,0-0.1-0.1-0.2c0-0.1,0-0.2-0.1-0.3c0-0.1-0.1-0.1-0.1-0.2
			c0-0.1-0.1-0.1-0.1-0.2l-11.6-10c-0.1,0-0.1-0.1-0.2-0.1c-0.1,0-0.1-0.1-0.2-0.1l-17.3-6.7c-0.1,0-0.1,0-0.2,0c-0.1,0-0.1,0-0.2,0
			l-18.5-0.9c-0.1,0-0.1,0-0.2,0c-0.1,0-0.1,0-0.2,0L853,193c0,0-0.1,0-0.1,0.1c0,0-0.1,0-0.1,0l-20.7,9.7c0,0,0,0,0,0
			c0,0,0,0-0.1,0l-104.5,60.3c0,0,0,0,0,0c0,0,0,0-0.1,0l-16.8,12c-0.1,0-0.1,0.1-0.1,0.2c0,0.1-0.1,0.1-0.2,0.1l-7.9,11.4
			c0,0.1,0,0.1-0.1,0.2C702.1,287.1,702.1,287.2,702.1,287.3z M712.1,277.1l16.6-11.8L833.1,205l20.6-9.6l19.4-4.5l18.1,0.9
			l16.9,6.5l11.1,9.5l1.4,9.7l-1.2,1.8l-6.3,9l-5,3.6l-8.1,5.7l-8-3.1c-0.1,0-0.1,0-0.2,0c-0.1,0-0.1,0-0.2,0l-18.5-0.9
			c-0.1,0-0.1,0-0.2,0c-0.1,0-0.1,0-0.2,0l-19.7,4.6c0,0-0.1,0-0.1,0.1c0,0-0.1,0-0.1,0L832,248c0,0,0,0,0,0c0,0,0,0-0.1,0
			l-104.5,60.3c0,0,0,0,0,0c0,0,0,0-0.1,0l-2.5,1.8l-7.8-3l-5-4.3l-6.1-5.2l-1.4-9.7L712.1,277.1z M896.4,240.1L792,300.4l-20.6,9.6
			l-19.4,4.5l-18.1-0.9l-6.3-2.4l1.1-0.8l104.4-60.3l20.6-9.6l19.4-4.5l18.1,0.9l6.3,2.4L896.4,240.1z"/>
		<path class="st7" d="M508.1,288.7c0-0.1,0-0.1,0-0.2c0-0.1,0-0.1-0.1-0.2c0,0,0,0,0-0.1c0,0,0,0-0.1-0.1c0,0-0.1-0.1-0.1-0.1
			c0,0-0.1-0.1-0.1-0.1c0,0-0.1-0.1-0.1-0.1c0,0,0,0-0.1,0L485.3,275v-58.1c0,0,0,0,0-0.1c0-0.1,0-0.1,0-0.2c0-0.1,0-0.1,0-0.2
			c0-0.1,0-0.1-0.1-0.2c0,0,0,0,0-0.1c0,0,0,0,0-0.1c0,0-0.1-0.1-0.1-0.1c0,0-0.1-0.1-0.1-0.1c0,0-0.1-0.1-0.1-0.1c0,0,0,0-0.1,0
			l-39.1-22.6c0,0-0.1,0-0.1,0c-0.1,0-0.2-0.1-0.2-0.1c-0.1,0-0.2,0-0.2,0c-0.1,0-0.2,0-0.2,0c-0.1,0-0.2,0-0.2,0.1c0,0-0.1,0-0.1,0
			l-15.2,8.8l35.5-111.3c0,0,0,0,0,0c0,0,0-0.1,0-0.1c0-0.1,0-0.1,0-0.2c0-0.1,0-0.1,0-0.1c0,0,0-0.1,0-0.1c0-0.1,0-0.1-0.1-0.2
			c0-0.1,0-0.1-0.1-0.2c0,0,0,0,0,0c0,0,0,0,0-0.1c0-0.1-0.1-0.1-0.1-0.2c0,0-0.1-0.1-0.1-0.1c0,0-0.1,0-0.1-0.1c0,0,0,0-0.1-0.1
			l-39.1-22.6c0,0-0.1,0-0.1,0c-0.1,0-0.2-0.1-0.2-0.1c-0.1,0-0.2,0-0.2,0c-0.1,0-0.2,0-0.2,0c-0.1,0-0.2,0-0.2,0.1c0,0-0.1,0-0.1,0
			l-62.2,35.9c0,0,0,0-0.1,0c-0.1,0-0.1,0.1-0.2,0.1c0,0-0.1,0.1-0.1,0.1c0,0,0,0.1-0.1,0.1c0,0,0,0-0.1,0.1c0,0,0,0.1,0,0.1
			c0,0-0.1,0.1-0.1,0.1l-89.8,278.3c0,0.1,0,0.1,0,0.2c0,0.1,0,0.1,0,0.2v58.3c0,0.1,0,0.1,0,0.2c0,0.1,0,0.2,0.1,0.3
			c0,0.1,0.1,0.1,0.1,0.2c0,0.1,0.1,0.1,0.1,0.2c0.1,0.1,0.1,0.1,0.2,0.2c0,0,0.1,0.1,0.1,0.1l39.1,22.6c0,0,0,0,0,0
			c0,0,0.1,0,0.1,0c0,0,0.1,0,0.1,0c0,0,0,0,0,0c0.1,0,0.3,0.1,0.4,0.1c0,0,0,0,0,0c0,0,0,0,0,0c0,0,0,0,0,0c0,0,0,0,0,0
			c0.1,0,0.3,0,0.4-0.1c0,0,0,0,0,0c0,0,0.1,0,0.1,0c0,0,0.1,0,0.1,0c0,0,0,0,0,0l76.7-44.3v4.5c0,0.1,0,0.1,0,0.2
			c0,0.1,0,0.2,0.1,0.3c0,0.1,0.1,0.1,0.1,0.2c0,0.1,0.1,0.1,0.1,0.2c0.1,0.1,0.1,0.1,0.2,0.2c0,0,0.1,0.1,0.1,0.1l39.1,22.6
			c0,0,0,0,0,0c0,0,0.1,0,0.1,0c0,0,0.1,0,0.1,0c0,0,0,0,0,0c0.1,0,0.3,0.1,0.4,0.1c0,0,0,0,0,0c0,0,0,0,0,0s0,0,0,0c0,0,0,0,0,0
			c0.1,0,0.3,0,0.4-0.1c0,0,0,0,0,0c0,0,0.1,0,0.1,0c0,0,0.1,0,0.1,0c0,0,0,0,0,0l54.9-31.7c0,0,0.1-0.1,0.1-0.1
			c0.1-0.1,0.1-0.1,0.2-0.2c0.1-0.1,0.1-0.1,0.1-0.2c0-0.1,0.1-0.1,0.1-0.2c0-0.1,0-0.2,0.1-0.3c0-0.1,0-0.1,0-0.2V364l22.2-12.8
			c0,0,0.1-0.1,0.1-0.1c0.1-0.1,0.1-0.1,0.2-0.2c0.1-0.1,0.1-0.1,0.1-0.2c0-0.1,0.1-0.1,0.1-0.2c0-0.1,0-0.2,0.1-0.3
			c0-0.1,0-0.1,0-0.2v-61.1c0,0,0,0,0-0.1C508.2,288.8,508.1,288.7,508.1,288.7z M483.4,362.2c0,0-0.1,0.1-0.1,0.1
			c-0.1,0.1-0.1,0.1-0.2,0.2c-0.1,0.1-0.1,0.1-0.1,0.2c0,0.1-0.1,0.1-0.1,0.2c0,0.1,0,0.2-0.1,0.3c0,0.1,0,0.1,0,0.2v51.1
			l-52.4,30.3V395c0,0,0,0,0-0.1c0-0.1,0-0.2,0-0.2c0-0.1,0-0.2-0.1-0.2c0,0,0,0,0-0.1c0,0-0.1-0.1-0.1-0.1
			c-0.1-0.1-0.1-0.1-0.2-0.2c-0.1-0.1-0.1-0.1-0.2-0.1c-0.1,0-0.1-0.1-0.2-0.1c-0.1,0-0.2,0-0.2-0.1c-0.1,0-0.1,0-0.2,0
			c0,0,0,0-0.1,0c-0.1,0-0.2,0-0.2,0c-0.1,0-0.2,0-0.2,0.1c0,0,0,0-0.1,0l-39.1,22.6l-76.7,44.3v-56l89.6-277.7l58.9-34l-35.5,111.3
			l-11.5,36l-22.9,72l-16.5,51.8c0,0,0,0,0,0c0,0.1,0,0.2,0,0.3c0,0.1,0,0.1,0,0.2c0,0.1,0,0.1,0.1,0.2c0,0.1,0,0.2,0.1,0.3
			c0,0,0,0,0,0c0.1,0.1,0.2,0.2,0.2,0.3c0,0,0,0,0.1,0.1c0.1,0.1,0.2,0.1,0.3,0.2c0,0,0,0,0,0c0,0,0,0,0,0c0.1,0,0.2,0,0.3,0.1
			c0,0,0,0,0,0c0,0,0,0,0,0c0.1,0,0.2,0,0.3-0.1c0,0,0.1,0,0.1,0c0.1,0,0.1,0,0.2-0.1l53.1-30.7c0,0,0,0,0,0l0,0c0,0,0,0,0,0
			c0.1-0.1,0.2-0.1,0.2-0.2c0,0,0,0,0,0c0,0,0-0.1,0.1-0.1c0,0,0-0.1,0.1-0.1c0,0,0,0,0.1-0.1c0,0,0,0,0-0.1c0,0,0-0.1,0.1-0.2
			c0-0.1,0-0.1,0-0.2c0-0.1,0-0.1,0-0.2c0,0,0,0,0-0.1v-84.5l52.4-30.3v56.6v26.4c0,0,0,0,0,0.1c0,0.1,0,0.2,0,0.2
			c0,0.1,0,0.2,0.1,0.2c0,0,0,0,0,0.1c0.1,0.1,0.1,0.2,0.2,0.2c0,0,0,0,0,0c0.1,0.1,0.2,0.2,0.4,0.2c0,0,0.1,0,0.1,0
			c0.1,0.1,0.3,0.1,0.4,0.1c0,0,0,0,0,0c0,0,0,0,0,0c0,0,0,0,0,0c0.1,0,0.3,0,0.4-0.1c0,0,0.1,0,0.1,0c0,0,0.1,0,0.1,0l21-12.1v58.2
			L483.4,362.2z M427.9,397.1v47.5l-36.6-21.1v-5.2L427.9,397.1z M273.5,382.2l89.3-276.7l36.9,21.3l-89.5,277.3c0,0.1,0,0.1,0,0.2
			c0,0.1,0,0.1,0,0.2v56.2l-36.6-21.1V382.2z M424.3,69.2l36.6,21.1l-59.7,34.4l-36.6-21.1L424.3,69.2z M444.9,195.8l36.6,21.1
			l-52.4,30.3l-12.2-7l11-34.6L444.9,195.8z M485.3,277.9l19.1,11l-19.1,11V277.9z M416.2,242.6l11.7,6.8v82.3L394,312.1
			L416.2,242.6z M393.2,314.6l33.4,19.3l-48.5,28L393.2,314.6z"/>
		<path class="st7" d="M1353.8,414c0-0.1,0-0.1,0-0.2v-61.1c0,0,0,0,0-0.1c0-0.1,0-0.1,0-0.2c0-0.1,0-0.1,0-0.2c0-0.1,0-0.1-0.1-0.1
			c0,0,0,0,0-0.1c0,0,0,0-0.1-0.1c0,0-0.1-0.1-0.1-0.1c0,0-0.1-0.1-0.1-0.1c0,0-0.1-0.1-0.1-0.1c0,0,0,0-0.1,0l-22.2-12.8v-84.5
			c0,0,0,0,0-0.1c0-0.1,0-0.1,0-0.2c0-0.1,0-0.1,0-0.2c0-0.1,0-0.1-0.1-0.1c0,0,0,0,0-0.1c0,0,0,0-0.1-0.1c0,0-0.1-0.1-0.1-0.1
			c0,0-0.1-0.1-0.1-0.1c0,0-0.1-0.1-0.1-0.1c0,0,0,0-0.1,0l-54.9-31.7c0,0-0.1,0-0.1,0c-0.1,0-0.2-0.1-0.2-0.1c-0.1,0-0.2,0-0.2,0
			c-0.1,0-0.2,0-0.2,0c-0.1,0-0.2,0-0.2,0.1c0,0-0.1,0-0.1,0l-32.5,18.8l68.5-135.8c0,0,0-0.1,0-0.1c0-0.1,0-0.1,0.1-0.2
			c0,0,0-0.1,0-0.1c0-0.1,0-0.1,0-0.2c0-0.1,0-0.1,0-0.2c0,0,0-0.1,0-0.1c0-0.1,0-0.1-0.1-0.2c0,0,0-0.1,0-0.1c0,0,0,0-0.1-0.1
			c0,0,0-0.1-0.1-0.1c0,0-0.1-0.1-0.1-0.1c-0.1-0.1-0.1-0.1-0.2-0.1c0,0,0,0-0.1-0.1l-62.2-35.9c0,0-0.1,0-0.1,0
			c-0.1,0-0.2-0.1-0.2-0.1c-0.1,0-0.2,0-0.2,0c-0.1,0-0.2,0-0.2,0c-0.1,0-0.2,0-0.2,0.1c0,0-0.1,0-0.1,0l-39.1,22.6c0,0,0,0-0.1,0
			c0,0-0.1,0-0.1,0.1c0,0-0.1,0.1-0.1,0.1c-0.1,0.1-0.1,0.1-0.1,0.2c0,0,0,0-0.1,0.1c0,0,0,0,0,0c0,0,0,0,0,0l-89.8,174.6
			c0,0,0,0,0,0c0,0.1,0,0.2-0.1,0.2c0,0.1,0,0.2,0,0.2c0,0,0,0,0,0v58.3c0,0.1,0,0.1,0,0.2c0,0.1,0,0.2,0.1,0.3
			c0,0.1,0.1,0.1,0.1,0.2c0,0.1,0.1,0.1,0.1,0.2c0.1,0.1,0.1,0.1,0.2,0.2c0,0,0.1,0.1,0.1,0.1l117.1,67.6v51.1c0,0.1,0,0.1,0,0.2
			c0,0.1,0,0.2,0.1,0.3c0,0.1,0.1,0.1,0.1,0.2c0,0.1,0.1,0.1,0.1,0.2c0.1,0.1,0.1,0.1,0.2,0.2c0,0,0.1,0.1,0.1,0.1l54.9,31.7
			c0,0,0,0,0,0c0,0,0.1,0,0.1,0c0,0,0.1,0,0.1,0c0,0,0,0,0,0c0.1,0,0.3,0.1,0.4,0.1c0,0,0,0,0,0c0,0,0,0,0,0c0,0,0,0,0,0
			c0,0,0,0,0,0c0.1,0,0.3,0,0.4-0.1c0,0,0,0,0,0c0,0,0.1,0,0.1,0c0,0,0.1,0,0.1,0c0,0,0,0,0,0l39.1-22.6c0,0,0.1-0.1,0.1-0.1
			c0.1-0.1,0.1-0.1,0.2-0.2c0.1-0.1,0.1-0.1,0.1-0.2c0-0.1,0.1-0.1,0.1-0.2c0-0.1,0-0.2,0.1-0.3c0-0.1,0-0.1,0-0.2v-24.7l22.2-12.8
			c0,0,0.1-0.1,0.1-0.1c0.1-0.1,0.1-0.1,0.2-0.2c0.1-0.1,0.1-0.1,0.1-0.2c0-0.1,0.1-0.1,0.1-0.2
			C1353.8,414.1,1353.8,414.1,1353.8,414z M1328.5,451.8l-36.6,21.1v-47.5l21,12.1c0,0,0,0,0,0c0,0,0.1,0,0.1,0c0,0,0.1,0,0.1,0
			c0,0,0,0,0.1,0c0.1,0,0.2,0.1,0.4,0.1c0,0,0,0,0,0c0,0,0,0,0,0c0,0,0,0,0,0c0,0,0,0,0,0c0.1,0,0.3,0,0.4-0.1c0,0,0,0,0,0
			c0,0,0.1,0,0.1,0c0,0,0.1,0,0.1,0c0,0,0,0,0,0l14.4-8.3V451.8z M1236.9,391.3c0-0.1,0-0.2-0.1-0.3c0-0.1-0.1-0.1-0.1-0.2
			c0-0.1-0.1-0.1-0.1-0.2c-0.1-0.1-0.1-0.1-0.2-0.2c0,0-0.1-0.1-0.1-0.1l-117.1-67.6v-57.3l89.1-173.1l60,34.6l-86.9,172.1
			c0,0,0,0.1,0,0.1c0,0.1-0.1,0.1-0.1,0.2c0,0,0,0.1,0,0.1c0,0.1,0,0.1,0,0.2c0,0.1,0,0.1,0,0.2c0,0,0,0.1,0,0.1
			c0,0.1,0,0.1,0.1,0.2c0,0,0,0.1,0,0.1c0,0,0,0.1,0.1,0.1c0,0,0,0,0.1,0.1c0,0,0,0,0.1,0.1c0.1,0.1,0.2,0.2,0.3,0.2c0,0,0,0,0,0
			l53.1,30.7c0,0,0.1,0,0.1,0c0,0,0.1,0,0.1,0c0.1,0.1,0.3,0.1,0.4,0.1c0,0,0,0,0,0c0,0,0,0,0,0c0,0,0,0,0,0c0.1,0,0.3,0,0.4-0.1
			c0,0,0.1,0,0.1,0c0.1-0.1,0.2-0.1,0.4-0.2c0,0,0,0,0,0c0.1-0.1,0.1-0.2,0.2-0.2c0,0,0,0,0-0.1c0-0.1,0.1-0.2,0.1-0.2
			c0-0.1,0-0.2,0-0.2c0,0,0,0,0-0.1v-45.2v-35.8v-2l52.4,30.3v84.5c0,0,0,0,0,0.1c0,0.1,0,0.1,0,0.2c0,0.1,0,0.1,0,0.2
			c0,0.1,0,0.1,0.1,0.1c0,0,0,0,0,0.1c0,0,0,0.1,0.1,0.1c0,0,0,0.1,0.1,0.1c0,0,0,0.1,0.1,0.1c0,0,0,0,0,0c0.1,0.1,0.2,0.1,0.2,0.2
			c0,0,0,0,0,0l22.2,12.8v58.2l-21-12.1c0,0,0,0-0.1,0c-0.1,0-0.2-0.1-0.2-0.1c-0.1,0-0.2,0-0.2,0c0,0,0,0-0.1,0c-0.1,0-0.1,0-0.1,0
			c-0.1,0-0.2,0-0.3,0.1c-0.1,0-0.1,0.1-0.2,0.1c-0.1,0-0.1,0.1-0.2,0.1c-0.1,0.1-0.1,0.1-0.2,0.2c0,0-0.1,0.1-0.1,0.1
			c0,0,0,0,0,0.1c0,0.1-0.1,0.2-0.1,0.2c0,0.1,0,0.2,0,0.2c0,0,0,0,0,0.1v49.7l-52.4-30.3v-51.1
			C1236.9,391.4,1236.9,391.4,1236.9,391.3z M1246.9,69.5l59.7,34.4L1270,125l-59.7-34.4L1246.9,69.5z M1274.8,224l52.4,30.3
			l-36.6,21.1l-52.4-30.3l1.1-0.6l0,0c0,0,0,0,0,0L1274.8,224z M1313.5,373.8l-20.4-11.8l36.6-21.1l20.4,11.8L1313.5,373.8z
			 M1328.5,338.8l-36.6,21.1v-82.3l36.6-21.1V338.8z M1185.1,299.7l36.6-21.1l12.8,7.4v42.3L1185.1,299.7z M1234.4,283l-11.1-6.4
			l11.1-22V283z M1235.1,244.1C1235,244.1,1235,244.1,1235.1,244.1c-0.1,0.1-0.1,0.1-0.2,0.1c0,0-0.1,0.1-0.1,0.1
			c0,0-0.1,0.1-0.1,0.1c0,0,0,0-0.1,0.1c0,0,0,0,0,0.1c0,0,0,0.1-0.1,0.2c0,0.1,0,0.1,0,0.2c0,0.1,0,0.1,0,0.2c0,0,0,0,0,0.1v3.9
			l-13.7,27.2l-35.2,20.3l85.4-169.1l35.2-20.3l-68.4,135.5L1235.1,244.1z M1329.1,425.9l-14.4,8.3V376l36.6-21.1v58.2L1329.1,425.9
			z"/>
	</g>
</g>
</svg>
