<?xml version="1.0" encoding="utf-8"?>
<!-- Generator: Adobe Illustrator 26.1.0, SVG Export Plug-In . SVG Version: 6.00 Build 0)  -->
<svg version="1.1" xmlns="http://www.w3.org/2000/svg" xmlns:xlink="http://www.w3.org/1999/xlink" x="0px" y="0px"
	 viewBox="0 0 2600 1621" style="enable-background:new 0 0 2600 1621;" xml:space="preserve">
<style type="text/css">
	.st0{display:none;}
	.st1{display:inline;fill:#EBF2FF;}
	.st2{fill:#CCDEFE;}
	.st3{fill:#EBF2FF;}
	.st4{fill:#ACC8FE;}
	.st5{fill:#FFFFFF;}
	.st6{display:inline;}
	.st7{fill:#175DA3;}
</style>
<g id="Background" class="st0">
	<rect x="0" y="0" class="st1" width="2600" height="1621"/>
</g>
<g id="Shadow">
	<polygon class="st2" points="800.5,947 897.8,939.4 959.8,903.7 934.4,888.8 976.6,864.4 973.5,847.8 995.9,834.7 994.3,823.2 
		964,805.7 875,833.3 877.6,845.7 760.2,913.4 762,924.9 	"/>
	<path class="st2" d="M1489.7,764.3c0,0-10.2-21.3-50.3-41.7l-278.9,73.1c0,0-20.9,8.9-41.8,30.3c0,0-29.2,35.2,16.4,71.3
		c0,0,45,33.4,93,36.1c0,0,48.4,4.7,91.2-18.8l137.5-79.4C1456.9,835.3,1511.8,808.9,1489.7,764.3z"/>
	<path class="st3" d="M1410.4,780.7c-0.1,0.4-0.2,0.8-0.4,1.3c-3.7,8.4-24,21.9-24,21.9l-105.2,60.4c-33.2,19.1-59,12.5-59,12.5
		c-30.2-9.1-28.1-18.4-28.1-18.4c7.1-13.8,26.1-24.4,26.1-24.4l31.7-18.3l124.4-55.2C1411.6,768.4,1410.4,780.7,1410.4,780.7z"/>
	<polygon class="st2" points="1644.8,771.9 1605.9,794.6 1607.4,806 1705.2,902.2 1766.4,937.4 1800.7,917.7 1802.9,919.5 
		1841.8,896.5 1840.1,884.7 1816.8,871.7 1814.7,853.8 1726.3,819.6 	"/>
</g>
<g id="Fill">
	<g>
		<polygon class="st4" points="1799.4,784.4 1799.4,845.5 1776.5,832.3 1776.5,884.2 1721.6,852.4 1721.6,800.6 1603.9,732.6 
			1603.9,674.3 1693.7,499.7 1755.8,535.6 1668.4,708.8 1721.6,739.4 1721.6,694.3 1721.6,658.4 1721.6,654.2 1776.5,686 
			1776.5,771.2 		"/>
		<polygon class="st4" points="1799.4,845.5 1799.4,784.4 1838.5,761.8 1838.5,822.9 1815.6,836.1 		"/>
		<polygon class="st5" points="1799.4,784.4 1776.5,771.2 1815.6,748.6 1838.5,761.8 		"/>
		<polygon class="st4" points="1776.5,771.2 1776.5,686 1815.6,663.4 1815.6,748.6 		"/>
		<polygon class="st5" points="1721.6,739.4 1668.4,708.8 1707.5,686.2 1721.6,694.3 		"/>
		<polygon class="st4" points="1776.5,832.3 1799.4,845.5 1815.6,836.1 1815.6,861.6 1776.5,884.2 		"/>
		<polygon class="st5" points="1755.8,535.6 1693.7,499.7 1732.8,477.1 1795,513 		"/>
		<polygon class="st4" points="1668.4,708.8 1755.8,535.6 1795,513 1724.5,652.5 1721.6,654.2 1721.6,658.4 1707.5,686.2 		"/>
		<polygon class="st5" points="1776.5,686 1721.6,654.2 1724.5,652.5 1760.7,631.6 1815.6,663.4 		"/>
	</g>
	<g>
		<polygon class="st4" points="1149.4,793.1 1130.6,780.7 1130.6,735.5 1149.4,747.9 		"/>
		<polygon class="st4" points="1130.6,780.7 1117.2,768.2 1117.2,723 1130.6,735.5 		"/>
		<polygon class="st4" points="1117.2,768.2 1109.1,755.6 1109.1,710.4 1117.2,723 		"/>
		<polygon class="st4" points="1109.1,755.6 1106.3,742.9 1106.3,697.7 1109.1,710.4 		"/>
		<polygon class="st4" points="1490.8,670.9 1488.6,683.4 1488.6,638.3 1490.8,625.7 		"/>
		<polygon class="st4" points="1488.6,683.4 1481.4,695.6 1481.4,650.5 1488.6,638.3 		"/>
		<polygon class="st4" points="1481.4,695.6 1469.2,707.5 1469.2,662.3 1481.4,650.5 		"/>
		<polygon class="st4" points="1469.2,707.5 1451.9,719.1 1451.9,673.9 1469.2,662.3 		"/>
		<polygon class="st4" points="1451.9,719.1 1319.4,795.6 1319.4,750.4 1451.9,673.9 		"/>
		<polygon class="st4" points="1319.4,795.6 1299.4,805.5 1299.4,760.3 1319.4,750.4 		"/>
		<polygon class="st4" points="1299.4,805.5 1278.9,812.5 1278.9,767.4 1299.4,760.3 		"/>
		<polygon class="st4" points="1278.9,812.5 1257.7,816.7 1257.7,771.5 1278.9,767.4 		"/>
		<polygon class="st4" points="1257.7,816.7 1236,818 1236,772.8 1257.7,771.5 		"/>
		<polygon class="st4" points="1236,818 1214,816.3 1214,771.1 1236,772.8 		"/>
		<polygon class="st4" points="1214,816.3 1192.3,811.6 1192.3,766.4 1214,771.1 		"/>
		<polygon class="st4" points="1192.3,811.6 1170.7,803.8 1170.7,758.6 1192.3,766.4 		"/>
		<polygon class="st4" points="1170.7,803.8 1149.4,793.1 1149.4,747.9 1170.7,758.6 		"/>
		<path class="st5" d="M1219.6,724l18.5,0.9l19.7-4.6l20.7-9.7l104.5-60.3l3-2.2l8.6-6.1l5.2-3.7l6.4-9.2l1.5-2.2l-1.5-10.7
			l-11.6-10l-17.3-6.7l-18.5-0.9l-19.7,4.6l-20.7,9.7l-104.5,60.3l-16.8,12l-7.9,11.4l1.5,10.7l6.4,5.5l5.2,4.5l8.6,3.3L1219.6,724z
			 M1149.4,747.9l-18.7-12.4l-13.4-12.5l-8.1-12.6l-2.8-12.7l2.3-12.6l7.2-12.2l12.1-11.8l17-11.4l132.5-76.5l20-9.9l20.6-7
			l21.2-4.1l21.8-1.3l22,1.7l21.8,4.7l21.6,7.7l21.4,10.8l18.7,12.4l13.5,12.5l8.2,12.5l2.9,12.6l-2.2,12.5l-7.2,12.2l-12.2,11.9
			l-17.2,11.6l-132.5,76.5l-20,9.9l-20.6,7l-21.2,4.1l-21.8,1.3l-22-1.7l-21.8-4.7l-21.6-7.7L1149.4,747.9z"/>
		<polygon class="st4" points="1386,648.1 1377.3,644.8 1377.3,599.6 1394.6,606.3 1394.6,642 		"/>
		<polygon class="st4" points="1377.3,644.8 1358.8,643.9 1358.8,598.7 1377.3,599.6 		"/>
		<polygon class="st4" points="1358.8,643.9 1339.1,648.5 1339.1,603.3 1358.8,598.7 		"/>
		<polygon class="st4" points="1339.1,648.5 1318.4,658.2 1318.4,613 1339.1,603.3 		"/>
		<polygon class="st4" points="1318.4,658.2 1213.9,718.5 1213.9,673.3 1318.4,613 		"/>
		<polygon class="st4" points="1213.9,718.5 1210.9,720.7 1202.3,717.3 1197.1,712.9 1197.1,685.3 1213.9,673.3 		"/>
		<polygon class="st4" points="1394.6,606.3 1406.2,616.3 1406.2,629.1 1399.8,638.3 1394.6,642 		"/>
		<polygon class="st4" points="1189.2,696.7 1197.1,685.3 1197.1,712.9 1190.7,707.3 		"/>
		<polygon class="st4" points="1406.2,616.3 1407.7,627 1406.2,629.1 		"/>
	</g>
	<g>
		<polygon class="st4" points="992.8,698 992.8,759.1 969.9,772.3 969.9,824.2 915,855.9 915,804 875.9,826.6 797.3,872 
			797.3,813.7 887.1,535.3 949.3,499.5 912.8,613.8 901.3,649.8 878.4,721.8 861.8,773.6 915,742.9 915,657.7 969.9,626 
			969.9,684.8 969.9,711.2 		"/>
		<polygon class="st4" points="915,804 915,855.9 875.9,833.3 875.9,826.6 		"/>
		<polygon class="st5" points="992.8,698 969.9,711.2 969.9,684.8 		"/>
		<polygon class="st4" points="915,657.7 915,742.9 878.4,721.8 901.3,649.8 		"/>
		<polygon class="st4" points="797.3,813.7 797.3,872 758.2,849.4 758.2,791.1 		"/>
		<polygon class="st4" points="887.1,535.3 797.3,813.7 758.2,791.1 848,512.8 		"/>
		<polygon class="st5" points="915,742.9 861.8,773.6 878.4,721.8 		"/>
		<polygon class="st5" points="949.3,499.5 887.1,535.3 848,512.8 910.2,476.9 		"/>
		<polygon class="st5" points="969.9,626 915,657.7 901.3,649.8 912.8,613.8 930.8,603.4 		"/>
	</g>
</g>
<g id="Text" class="st0">
	<g class="st6">
		<path class="st7" d="M921.3,1102.4c-5.8-1.7-10-3.7-12.6-6.1c-2.6-2.4-4-5.4-4-9c0-4,1.6-7.4,4.8-10c3.2-2.6,7.4-4,12.6-4
			c3.5,0,6.6,0.7,9.4,2c2.8,1.4,4.9,3.2,6.4,5.6c1.5,2.4,2.3,5,2.3,7.8h-6.8c0-3.1-1-5.5-3-7.3s-4.7-2.7-8.3-2.7
			c-3.3,0-5.9,0.7-7.8,2.2c-1.9,1.5-2.8,3.5-2.8,6.1c0,2.1,0.9,3.9,2.7,5.3c1.8,1.4,4.8,2.8,9,4c4.3,1.2,7.6,2.5,10,4
			c2.4,1.4,4.2,3.1,5.3,5s1.7,4.2,1.7,6.8c0,4.1-1.6,7.5-4.9,10c-3.2,2.5-7.6,3.7-13,3.7c-3.5,0-6.8-0.7-9.8-2c-3-1.3-5.4-3.2-7-5.5
			c-1.7-2.3-2.5-5-2.5-8h6.8c0,3.1,1.1,5.5,3.4,7.3c2.3,1.8,5.3,2.7,9.2,2.7c3.6,0,6.3-0.7,8.2-2.2c1.9-1.5,2.8-3.4,2.8-5.9
			s-0.9-4.4-2.6-5.8S925.9,1103.8,921.3,1102.4z"/>
		<path class="st7" d="M946.2,1105.9c0-3.7,0.7-7.1,2.2-10.1c1.5-3,3.5-5.3,6.1-6.9c2.6-1.6,5.6-2.4,8.9-2.4c5.2,0,9.4,1.8,12.6,5.4
			c3.2,3.6,4.8,8.4,4.8,14.3v0.5c0,3.7-0.7,7-2.1,10c-1.4,2.9-3.4,5.2-6.1,6.9c-2.6,1.6-5.7,2.5-9.1,2.5c-5.2,0-9.3-1.8-12.5-5.4
			c-3.2-3.6-4.8-8.3-4.8-14.2V1105.9z M952.7,1106.7c0,4.2,1,7.6,2.9,10.2c2,2.6,4.6,3.8,7.9,3.8c3.3,0,5.9-1.3,7.9-3.9
			c1.9-2.6,2.9-6.2,2.9-10.9c0-4.2-1-7.6-3-10.1c-2-2.6-4.6-3.9-7.9-3.9c-3.2,0-5.8,1.3-7.8,3.8
			C953.7,1098.2,952.7,1101.9,952.7,1106.7z"/>
		<path class="st7" d="M1007.4,1093.1c-1-0.2-2.1-0.2-3.2-0.2c-4.3,0-7.2,1.8-8.7,5.4v27H989v-38h6.3l0.1,4.4
			c2.1-3.4,5.2-5.1,9.1-5.1c1.3,0,2.2,0.2,2.9,0.5V1093.1z"/>
		<path class="st7" d="M1031.7,1093.1c-1-0.2-2.1-0.2-3.2-0.2c-4.3,0-7.2,1.8-8.7,5.4v27h-6.5v-38h6.3l0.1,4.4
			c2.1-3.4,5.2-5.1,9.1-5.1c1.3,0,2.2,0.2,2.9,0.5V1093.1z"/>
		<path class="st7" d="M1050.1,1115.7l8.9-28.5h7l-15.3,43.9c-2.4,6.3-6.1,9.5-11.3,9.5l-1.2-0.1l-2.4-0.5v-5.3l1.8,0.1
			c2.2,0,3.9-0.4,5.2-1.3s2.2-2.5,3-4.9l1.4-3.9l-13.6-37.6h7.1L1050.1,1115.7z"/>
		<path class="st7" d="M1071.6,1135.5l-3.7-2.5c2.2-3.1,3.4-6.2,3.4-9.5v-5.9h6.4v5.1c0,2.4-0.6,4.7-1.7,7.1
			S1073.3,1134,1071.6,1135.5z"/>
		<path class="st7" d="M1112.5,1078v9.2h7.1v5h-7.1v23.6c0,1.5,0.3,2.7,0.9,3.4s1.7,1.1,3.2,1.1c0.8,0,1.8-0.1,3.1-0.4v5.2
			c-1.7,0.5-3.4,0.7-5,0.7c-2.9,0-5.1-0.9-6.6-2.6c-1.5-1.8-2.2-4.3-2.2-7.5v-23.6h-6.9v-5h6.9v-9.2H1112.5z"/>
		<path class="st7" d="M1133.7,1091.8c2.9-3.5,6.6-5.3,11.2-5.3c8,0,12.1,4.5,12.2,13.6v25.1h-6.5v-25.2c0-2.7-0.7-4.8-1.9-6.1
			s-3.1-2-5.7-2c-2.1,0-4,0.6-5.6,1.7c-1.6,1.1-2.8,2.6-3.7,4.4v27.1h-6.5v-54h6.5V1091.8z"/>
		<path class="st7" d="M1182.7,1126c-5.2,0-9.4-1.7-12.6-5.1s-4.9-7.9-4.9-13.6v-1.2c0-3.8,0.7-7.1,2.2-10.1s3.5-5.3,6-7
			c2.6-1.7,5.4-2.5,8.4-2.5c4.9,0,8.8,1.6,11.5,4.9c2.7,3.3,4.1,7.9,4.1,14v2.7h-25.8c0.1,3.8,1.2,6.8,3.3,9.1
			c2.1,2.3,4.8,3.5,8,3.5c2.3,0,4.2-0.5,5.8-1.4c1.6-0.9,3-2.2,4.2-3.7l4,3.1C1193.8,1123.5,1189.1,1126,1182.7,1126z
			 M1181.9,1091.9c-2.6,0-4.8,1-6.6,2.9c-1.8,1.9-2.9,4.6-3.3,8h19.1v-0.5c-0.2-3.3-1.1-5.9-2.7-7.7
			C1186.7,1092.8,1184.6,1091.9,1181.9,1091.9z"/>
		<path class="st7" d="M1255,1106.7c0,5.8-1.3,10.5-4,14c-2.6,3.5-6.2,5.3-10.8,5.3c-4.6,0-8.2-1.5-10.9-4.4v18.3h-6.5v-52.7h5.9
			l0.3,4.2c2.6-3.3,6.3-4.9,11-4.9c4.6,0,8.2,1.7,10.8,5.2c2.7,3.4,4,8.2,4,14.4V1106.7z M1248.5,1105.9c0-4.3-0.9-7.7-2.7-10.2
			s-4.3-3.7-7.5-3.7c-3.9,0-6.9,1.7-8.9,5.2v18.2c1.9,3.5,4.9,5.2,8.9,5.2c3.1,0,5.6-1.2,7.4-3.7
			C1247.6,1114.5,1248.5,1110.8,1248.5,1105.9z"/>
		<path class="st7" d="M1286.7,1125.3c-0.4-0.8-0.7-2.1-0.9-4c-3,3.1-6.6,4.7-10.8,4.7c-3.8,0-6.8-1.1-9.2-3.2
			c-2.4-2.1-3.6-4.8-3.6-8.1c0-4,1.5-7,4.5-9.2c3-2.2,7.2-3.3,12.7-3.3h6.3v-3c0-2.3-0.7-4.1-2-5.4c-1.4-1.3-3.4-2-6-2
			c-2.3,0-4.3,0.6-5.8,1.8c-1.6,1.2-2.4,2.6-2.4,4.3h-6.5c0-1.9,0.7-3.7,2-5.5c1.3-1.8,3.2-3.2,5.5-4.2c2.3-1,4.8-1.5,7.6-1.5
			c4.4,0,7.8,1.1,10.3,3.3c2.5,2.2,3.8,5.2,3.9,9.1v17.5c0,3.5,0.4,6.3,1.3,8.3v0.6H1286.7z M1276,1120.3c2,0,4-0.5,5.8-1.6
			s3.2-2.4,4-4.1v-7.8h-5.1c-8,0-12,2.3-12,7c0,2,0.7,3.6,2,4.8C1272.1,1119.7,1273.8,1120.3,1276,1120.3z"/>
		<path class="st7" d="M1300.9,1105.9c0-5.9,1.4-10.6,4.1-14.2s6.4-5.3,10.9-5.3c4.6,0,8.3,1.6,10.9,4.9l0.3-4.2h5.9v37.1
			c0,4.9-1.5,8.8-4.4,11.6c-2.9,2.8-6.8,4.3-11.8,4.3c-2.7,0-5.4-0.6-8.1-1.8s-4.6-2.8-6-4.8l3.4-3.9c2.8,3.4,6.2,5.2,10.2,5.2
			c3.2,0,5.6-0.9,7.4-2.7s2.7-4.3,2.7-7.5v-3.3c-2.6,3-6.2,4.5-10.7,4.5c-4.5,0-8.1-1.8-10.8-5.4
			C1302.3,1117,1300.9,1112.1,1300.9,1105.9z M1307.4,1106.7c0,4.3,0.9,7.7,2.6,10.1s4.2,3.7,7.4,3.7c4.1,0,7.1-1.9,9-5.6v-17.4
			c-2-3.6-5-5.4-9-5.4c-3.2,0-5.6,1.2-7.4,3.7S1307.4,1101.8,1307.4,1106.7z"/>
		<path class="st7" d="M1358.6,1126c-5.2,0-9.4-1.7-12.6-5.1s-4.9-7.9-4.9-13.6v-1.2c0-3.8,0.7-7.1,2.2-10.1s3.5-5.3,6-7
			s5.4-2.5,8.4-2.5c4.9,0,8.8,1.6,11.5,4.9c2.7,3.3,4.1,7.9,4.1,14v2.7h-25.8c0.1,3.8,1.2,6.8,3.3,9.1s4.8,3.5,8,3.5
			c2.3,0,4.2-0.5,5.8-1.4s3-2.2,4.2-3.7l4,3.1C1369.8,1123.5,1365,1126,1358.6,1126z M1357.8,1091.9c-2.6,0-4.8,1-6.6,2.9
			s-2.9,4.6-3.3,8h19.1v-0.5c-0.2-3.3-1.1-5.9-2.7-7.7S1360.5,1091.9,1357.8,1091.9z"/>
		<path class="st7" d="M1404.9,1087.2l0.2,4.8c2.9-3.7,6.7-5.5,11.4-5.5c8,0,12.1,4.5,12.2,13.6v25.1h-6.5v-25.2
			c0-2.7-0.7-4.8-1.9-6.1s-3.1-2-5.7-2c-2.1,0-4,0.6-5.6,1.7s-2.8,2.6-3.7,4.4v27.1h-6.5v-38H1404.9z"/>
		<path class="st7" d="M1436.8,1105.9c0-3.7,0.7-7.1,2.2-10.1c1.5-3,3.5-5.3,6.1-6.9s5.6-2.4,8.9-2.4c5.2,0,9.4,1.8,12.6,5.4
			c3.2,3.6,4.8,8.4,4.8,14.3v0.5c0,3.7-0.7,7-2.1,10s-3.4,5.2-6.1,6.9s-5.7,2.5-9.1,2.5c-5.2,0-9.3-1.8-12.5-5.4
			c-3.2-3.6-4.8-8.3-4.8-14.2V1105.9z M1443.3,1106.7c0,4.2,1,7.6,2.9,10.2s4.6,3.8,7.9,3.8c3.3,0,5.9-1.3,7.9-3.9s2.9-6.2,2.9-10.9
			c0-4.2-1-7.6-3-10.1s-4.6-3.9-7.9-3.9c-3.2,0-5.8,1.3-7.8,3.8S1443.3,1101.9,1443.3,1106.7z"/>
		<path class="st7" d="M1488.4,1078v9.2h7.1v5h-7.1v23.6c0,1.5,0.3,2.7,0.9,3.4s1.7,1.1,3.2,1.1c0.8,0,1.8-0.1,3.1-0.4v5.2
			c-1.7,0.5-3.4,0.7-5,0.7c-2.9,0-5.1-0.9-6.6-2.6c-1.5-1.8-2.2-4.3-2.2-7.5v-23.6h-6.9v-5h6.9v-9.2H1488.4z"/>
		<path class="st7" d="M1524.1,1125.3v-33h-6v-5h6v-3.9c0-4.1,1.1-7.2,3.3-9.5s5.3-3.3,9.2-3.3c1.5,0,3,0.2,4.5,0.6l-0.4,5.2
			c-1.1-0.2-2.3-0.3-3.5-0.3c-2.1,0-3.7,0.6-4.9,1.9s-1.7,3-1.7,5.3v4h8.1v5h-8.1v33H1524.1z"/>
		<path class="st7" d="M1544.2,1105.9c0-3.7,0.7-7.1,2.2-10.1c1.5-3,3.5-5.3,6.1-6.9s5.6-2.4,8.9-2.4c5.2,0,9.4,1.8,12.6,5.4
			c3.2,3.6,4.8,8.4,4.8,14.3v0.5c0,3.7-0.7,7-2.1,10s-3.4,5.2-6.1,6.9s-5.7,2.5-9.1,2.5c-5.2,0-9.3-1.8-12.5-5.4
			c-3.2-3.6-4.8-8.3-4.8-14.2V1105.9z M1550.7,1106.7c0,4.2,1,7.6,2.9,10.2s4.6,3.8,7.9,3.8c3.3,0,5.9-1.3,7.9-3.9s2.9-6.2,2.9-10.9
			c0-4.2-1-7.6-3-10.1s-4.6-3.9-7.9-3.9c-3.2,0-5.8,1.3-7.8,3.8S1550.7,1101.9,1550.7,1106.7z"/>
		<path class="st7" d="M1610.5,1121.5c-2.5,3-6.2,4.5-11.1,4.5c-4.1,0-7.1-1.2-9.3-3.5s-3.2-5.8-3.2-10.5v-24.8h6.5v24.6
			c0,5.8,2.3,8.6,7,8.6c5,0,8.3-1.9,9.9-5.6v-27.7h6.5v38h-6.2L1610.5,1121.5z"/>
		<path class="st7" d="M1632.8,1087.2l0.2,4.8c2.9-3.7,6.7-5.5,11.4-5.5c8,0,12.1,4.5,12.2,13.6v25.1h-6.5v-25.2
			c0-2.7-0.7-4.8-1.9-6.1s-3.1-2-5.7-2c-2.1,0-4,0.6-5.6,1.7s-2.8,2.6-3.7,4.4v27.1h-6.5v-38H1632.8z"/>
		<path class="st7" d="M1664.8,1105.9c0-5.8,1.4-10.5,4.1-14.1s6.4-5.3,10.9-5.3c4.5,0,8,1.5,10.6,4.6v-19.8h6.5v54h-6l-0.3-4.1
			c-2.6,3.2-6.2,4.8-10.9,4.8c-4.4,0-8-1.8-10.8-5.4s-4.2-8.3-4.2-14.1V1105.9z M1671.3,1106.7c0,4.3,0.9,7.7,2.7,10.1
			s4.2,3.7,7.4,3.7c4.1,0,7.1-1.9,9-5.6v-17.5c-1.9-3.6-4.9-5.4-9-5.4c-3.2,0-5.7,1.2-7.5,3.7S1671.3,1101.8,1671.3,1106.7z"/>
	</g>
</g>
<g id="Outline">
	<g>
		<path class="st7" d="M1492.1,625.5C1492.1,625.5,1492.1,625.5,1492.1,625.5l-2.9-12.6c0-0.1-0.1-0.1-0.1-0.2c0-0.1,0-0.1-0.1-0.2
			l-8.2-12.5c0,0-0.1-0.1-0.1-0.1c0,0-0.1-0.1-0.1-0.1l-13.5-12.5c0,0-0.1,0-0.1-0.1c0,0,0-0.1-0.1-0.1l-18.7-12.4c0,0,0,0-0.1,0
			c0,0,0,0-0.1,0l-21.4-10.8c0,0,0,0-0.1,0c0,0,0,0-0.1,0l-21.6-7.7c0,0-0.1,0-0.1,0c0,0,0,0-0.1,0l-21.8-4.7c0,0-0.1,0-0.1,0
			c0,0-0.1,0-0.1,0l-22-1.7c0,0-0.1,0-0.1,0c0,0-0.1,0-0.1,0l-21.8,1.3c0,0-0.1,0-0.1,0c0,0-0.1,0-0.1,0l-21.2,4.1c0,0-0.1,0-0.1,0
			c0,0-0.1,0-0.1,0l-20.6,7c0,0,0,0-0.1,0c0,0-0.1,0-0.1,0l-20,9.9c0,0,0,0,0,0c0,0,0,0,0,0l-132.5,76.5c0,0,0,0,0,0c0,0,0,0,0,0
			l-17,11.4c0,0-0.1,0.1-0.1,0.1c0,0-0.1,0-0.1,0.1L1115,672c0,0-0.1,0.1-0.1,0.1c0,0-0.1,0.1-0.1,0.1l-7.2,12.2
			c0,0.1,0,0.1-0.1,0.2c0,0.1-0.1,0.1-0.1,0.2l-2.3,12.6c0,0,0,0,0,0l0,0c0,0,0,0.1,0,0.1c0,0,0,0.1,0,0.1v45.2c0,0,0,0.1,0,0.1
			c0,0,0,0.1,0,0.1l2.8,12.7c0,0.1,0.1,0.3,0.2,0.4c0,0,0,0,0,0l8.1,12.6c0.1,0.1,0.1,0.2,0.2,0.2c0,0,0,0,0,0l0,0c0,0,0,0,0,0
			l13.4,12.5c0,0,0.1,0,0.1,0.1c0,0,0,0.1,0.1,0.1l18.7,12.4c0,0,0.1,0,0.1,0c0,0,0,0,0,0l21.4,10.8c0,0,0.1,0,0.1,0c0,0,0,0,0,0
			l21.6,7.7c0,0,0.1,0,0.1,0c0,0,0,0,0.1,0l21.8,4.7c0,0,0.1,0,0.1,0c0,0,0,0,0,0l22,1.7c0,0,0.1,0,0.1,0c0,0,0,0,0,0c0,0,0,0,0,0
			c0,0,0,0,0,0c0,0,0,0,0,0c0,0,0,0,0.1,0l21.8-1.3c0,0,0,0,0,0c0,0,0.1,0,0.1,0l21.2-4.1c0,0,0,0,0.1,0c0,0,0.1,0,0.1,0l20.6-7
			c0,0,0,0,0,0c0,0,0.1,0,0.1,0l20-9.9c0,0,0,0,0,0c0,0,0,0,0,0l132.5-76.5c0,0,0,0,0,0c0,0,0,0,0,0l17.2-11.6c0,0,0-0.1,0.1-0.1
			c0,0,0.1,0,0.1-0.1l12.2-11.9c0.1-0.1,0.2-0.2,0.2-0.3l7.2-12.2c0,0,0,0,0,0c0.1-0.1,0.1-0.3,0.2-0.4l2.2-12.5c0,0,0-0.1,0-0.1
			c0,0,0-0.1,0-0.1v-45.2c0,0,0-0.1,0-0.1C1492.1,625.6,1492.1,625.5,1492.1,625.5z M1480.4,694.9l-12,11.7l-17.1,11.5l-132.5,76.5
			l-19.8,9.9l-20.4,7l-21,4.1l-21.6,1.3l-21.8-1.7l-21.6-4.7l-21.4-7.7L1150,792l-18.6-12.3l-13.2-12.3l-7.9-12.3l-2.7-12.4v-33.6
			l0.3,1.5c0,0.1,0.1,0.3,0.2,0.4c0,0,0,0,0,0l8.1,12.6c0.1,0.1,0.1,0.2,0.2,0.2c0,0,0,0,0,0l0,0c0,0,0,0,0,0l13.4,12.5
			c0,0,0.1,0,0.1,0.1c0,0,0,0.1,0.1,0.1l18.7,12.4c0,0,0.1,0,0.1,0c0,0,0,0,0,0l21.4,10.8c0,0,0.1,0,0.1,0c0,0,0,0,0,0l21.6,7.7
			c0,0,0.1,0,0.1,0c0,0,0,0,0.1,0l21.8,4.7c0,0,0.1,0,0.1,0c0,0,0,0,0,0l22,1.7c0,0,0.1,0,0.1,0c0,0,0,0,0,0c0,0,0,0,0,0
			c0,0,0,0,0,0c0,0,0,0,0,0c0,0,0,0,0.1,0l21.8-1.3c0,0,0,0,0,0c0,0,0.1,0,0.1,0l21.2-4.1c0,0,0,0,0.1,0c0,0,0.1,0,0.1,0l20.6-7
			c0,0,0,0,0,0c0,0,0.1,0,0.1,0l20-9.9c0,0,0,0,0,0c0,0,0,0,0,0l132.5-76.5c0,0,0,0,0,0c0,0,0,0,0,0l17.2-11.6c0,0,0-0.1,0.1-0.1
			c0,0,0.1,0,0.1-0.1l12.2-11.9c0.1-0.1,0.2-0.2,0.2-0.3l7.1-12v31.7l-2.1,12.2L1480.4,694.9z M1116.8,673.7l11.9-11.6l16.9-11.3
			l132.5-76.5l19.8-9.9l20.4-7l21-4.1l21.6-1.3l21.8,1.7l21.6,4.7l21.4,7.7l21.2,10.7l18.6,12.3l13.3,12.3l8,12.2l2.8,12.2l-2.1,12
			l-7,11.9l-12,11.7l-17.1,11.5l-132.5,76.5l-19.8,9.9l-20.4,7l-21,4.1l-21.6,1.3l-21.8-1.7l-21.6-4.7l-21.4-7.7l-21.2-10.7
			l-18.6-12.3l-13.2-12.3l-7.9-12.3l-2.7-12.2l2.2-12.1L1116.8,673.7z"/>
		<path class="st7" d="M1187.9,696.4c0,0.1,0,0.2,0,0.3c0,0.1,0,0.1,0,0.2l1.5,10.7c0,0.1,0,0.1,0.1,0.2c0,0.1,0,0.1,0.1,0.2
			c0.1,0.1,0.2,0.3,0.3,0.4c0,0,0,0,0,0l6.4,5.5l5.2,4.5c0.1,0.1,0.2,0.1,0.3,0.2c0,0,0.1,0,0.1,0.1l8.6,3.3l8.7,3.4
			c0.1,0,0.2,0,0.2,0c0,0,0.1,0,0.1,0l18.5,0.9c0,0,0,0,0.1,0c0,0,0,0,0,0c0.1,0,0.2,0,0.3,0l19.7-4.6c0,0,0,0,0,0l0,0c0,0,0,0,0,0
			c0.1,0,0.2,0,0.2-0.1l20.7-9.7c0,0,0,0,0,0c0,0,0,0,0.1,0l104.5-60.3c0,0,0,0,0,0c0,0,0,0,0.1,0l3-2.1c0,0,0,0,0,0l0,0
			c0,0,0,0,0,0l8.6-6.1l5.2-3.7c0,0,0,0,0,0c0.1-0.1,0.2-0.2,0.3-0.3l6.4-9.2l1.5-2.2c0-0.1,0-0.1,0.1-0.2c0-0.1,0.1-0.2,0.1-0.3
			c0-0.1,0-0.2,0-0.3c0-0.1,0-0.1,0-0.2l-1.5-10.7c0-0.1,0-0.1-0.1-0.2c0-0.1,0-0.2-0.1-0.3c0-0.1-0.1-0.1-0.1-0.2
			c0-0.1-0.1-0.1-0.1-0.2l-11.6-10c-0.1,0-0.1-0.1-0.2-0.1c-0.1,0-0.1-0.1-0.2-0.1l-17.3-6.7c-0.1,0-0.1,0-0.2,0c-0.1,0-0.1,0-0.2,0
			l-18.5-0.9c-0.1,0-0.1,0-0.2,0c-0.1,0-0.1,0-0.2,0l-19.7,4.6c0,0-0.1,0-0.1,0.1c0,0-0.1,0-0.1,0l-20.7,9.7c0,0,0,0,0,0
			c0,0,0,0-0.1,0l-104.5,60.3c0,0,0,0,0,0c0,0,0,0-0.1,0l-16.8,12c-0.1,0-0.1,0.1-0.1,0.2c0,0.1-0.1,0.1-0.2,0.1l-7.9,11.4
			c0,0.1,0,0.1-0.1,0.2C1188,696.2,1188,696.3,1187.9,696.4z M1198,686.2l16.6-11.8l104.4-60.3l20.6-9.6l19.4-4.5l18.1,0.9l16.9,6.5
			l11.1,9.5l1.4,9.7l-1.2,1.8l-6.3,9l-5,3.6l-8.1,5.7l-8-3.1c-0.1,0-0.1,0-0.2,0c-0.1,0-0.1,0-0.2,0l-18.5-0.9c-0.1,0-0.1,0-0.2,0
			c-0.1,0-0.1,0-0.2,0l-19.7,4.6c0,0-0.1,0-0.1,0.1c0,0-0.1,0-0.1,0l-20.7,9.7c0,0,0,0,0,0c0,0,0,0-0.1,0l-104.5,60.3c0,0,0,0,0,0
			c0,0,0,0-0.1,0l-2.5,1.8l-7.8-3l-5-4.3l-6.1-5.2l-1.4-9.7L1198,686.2z M1382.3,649.2l-104.4,60.3l-20.6,9.6l-19.4,4.5l-18.1-0.9
			l-6.3-2.4l1.1-0.8l104.4-60.3l20.6-9.6l19.4-4.5l18.1,0.9l6.3,2.4L1382.3,649.2z"/>
		<path class="st7" d="M994,697.8c0-0.1,0-0.1,0-0.2c0-0.1,0-0.1-0.1-0.2c0,0,0,0,0-0.1c0,0,0,0,0-0.1c0,0-0.1-0.1-0.1-0.1
			c0,0-0.1-0.1-0.1-0.1c0,0-0.1-0.1-0.1-0.1c0,0,0,0-0.1,0l-22.2-12.8V626c0,0,0,0,0-0.1c0-0.1,0-0.1,0-0.2c0-0.1,0-0.1,0-0.2
			c0-0.1,0-0.1-0.1-0.2c0,0,0,0,0-0.1c0,0,0,0,0-0.1c0,0-0.1-0.1-0.1-0.1c0,0-0.1-0.1-0.1-0.1c0,0-0.1-0.1-0.1-0.1c0,0,0,0-0.1,0
			l-39.1-22.6c0,0-0.1,0-0.1,0c-0.1,0-0.2-0.1-0.2-0.1c-0.1,0-0.2,0-0.2,0c-0.1,0-0.2,0-0.2,0c-0.1,0-0.2,0-0.2,0.1c0,0-0.1,0-0.1,0
			l-15.2,8.8l35.5-111.3c0,0,0,0,0,0c0,0,0-0.1,0-0.1c0-0.1,0-0.1,0-0.2c0-0.1,0-0.1,0-0.1c0,0,0-0.1,0-0.1c0-0.1,0-0.1-0.1-0.2
			c0-0.1,0-0.1-0.1-0.2c0,0,0,0,0,0c0,0,0,0,0-0.1c0-0.1-0.1-0.1-0.1-0.2c0,0-0.1-0.1-0.1-0.1c0,0-0.1,0-0.1-0.1c0,0,0,0-0.1-0.1
			l-39.1-22.6c0,0-0.1,0-0.1,0c-0.1,0-0.2-0.1-0.2-0.1c-0.1,0-0.2,0-0.2,0c-0.1,0-0.2,0-0.2,0c-0.1,0-0.2,0-0.2,0.1c0,0-0.1,0-0.1,0
			l-62.2,35.9c0,0,0,0-0.1,0c-0.1,0-0.1,0.1-0.2,0.1c0,0-0.1,0.1-0.1,0.1c0,0,0,0.1-0.1,0.1c0,0,0,0,0,0.1c0,0,0,0.1,0,0.1
			c0,0-0.1,0.1-0.1,0.1L757,790.7c0,0.1,0,0.1,0,0.2c0,0.1,0,0.1,0,0.2v58.3c0,0.1,0,0.1,0,0.2c0,0.1,0,0.2,0.1,0.3
			c0,0.1,0.1,0.1,0.1,0.2c0,0.1,0.1,0.1,0.1,0.2c0.1,0.1,0.1,0.1,0.2,0.2c0,0,0.1,0.1,0.1,0.1l39.1,22.6c0,0,0,0,0,0
			c0,0,0.1,0,0.1,0c0,0,0.1,0,0.1,0c0,0,0,0,0,0c0.1,0,0.3,0.1,0.4,0.1c0,0,0,0,0,0c0,0,0,0,0,0c0,0,0,0,0,0c0,0,0,0,0,0
			c0.1,0,0.3,0,0.4-0.1c0,0,0,0,0,0c0,0,0.1,0,0.1,0c0,0,0.1,0,0.1,0c0,0,0,0,0,0l76.7-44.3v4.5c0,0.1,0,0.1,0,0.2
			c0,0.1,0,0.2,0.1,0.3c0,0.1,0.1,0.1,0.1,0.2c0,0.1,0.1,0.1,0.1,0.2c0.1,0.1,0.1,0.1,0.2,0.2c0,0,0.1,0.1,0.1,0.1l39.1,22.6
			c0,0,0,0,0,0c0,0,0.1,0,0.1,0c0,0,0.1,0,0.1,0c0,0,0,0,0,0c0.1,0,0.3,0.1,0.4,0.1c0,0,0,0,0,0c0,0,0,0,0,0c0,0,0,0,0,0
			c0,0,0,0,0,0c0.1,0,0.3,0,0.4-0.1c0,0,0,0,0,0c0,0,0.1,0,0.1,0c0,0,0.1,0,0.1,0c0,0,0,0,0,0l54.9-31.7c0,0,0.1-0.1,0.1-0.1
			c0.1-0.1,0.1-0.1,0.2-0.2c0.1-0.1,0.1-0.1,0.1-0.2c0-0.1,0.1-0.1,0.1-0.2c0-0.1,0-0.2,0.1-0.3c0-0.1,0-0.1,0-0.2V773l22.2-12.8
			c0,0,0.1-0.1,0.1-0.1c0.1-0.1,0.1-0.1,0.2-0.2c0.1-0.1,0.1-0.1,0.1-0.2c0-0.1,0.1-0.1,0.1-0.2c0-0.1,0-0.2,0.1-0.3
			c0-0.1,0-0.1,0-0.2V698c0,0,0,0,0-0.1C994,697.9,994,697.8,994,697.8z M969.3,771.2c0,0-0.1,0.1-0.1,0.1c-0.1,0.1-0.1,0.1-0.2,0.2
			c-0.1,0.1-0.1,0.1-0.1,0.2c0,0.1-0.1,0.1-0.1,0.2c0,0.1,0,0.2-0.1,0.3c0,0.1,0,0.1,0,0.2v51.1l-52.4,30.3V804c0,0,0,0,0-0.1
			c0-0.1,0-0.2,0-0.2c0-0.1,0-0.2-0.1-0.2c0,0,0,0,0-0.1c0,0-0.1-0.1-0.1-0.1c-0.1-0.1-0.1-0.1-0.2-0.2c-0.1-0.1-0.1-0.1-0.2-0.1
			c-0.1,0-0.1-0.1-0.2-0.1c-0.1,0-0.2,0-0.2-0.1c-0.1,0-0.1,0-0.2,0c0,0,0,0-0.1,0c-0.1,0-0.2,0-0.2,0c-0.1,0-0.2,0-0.2,0.1
			c0,0,0,0-0.1,0l-39.1,22.6l-76.7,44.3v-56l89.6-277.7l58.9-34l-35.5,111.3l-11.5,36l-22.9,72l-16.5,51.8c0,0,0,0,0,0
			c0,0.1,0,0.2,0,0.3c0,0.1,0,0.1,0,0.2c0,0.1,0,0.1,0.1,0.2c0,0.1,0,0.2,0.1,0.3c0,0,0,0,0,0c0.1,0.1,0.2,0.2,0.2,0.3
			c0,0,0,0,0.1,0.1c0.1,0.1,0.2,0.1,0.3,0.2c0,0,0,0,0,0c0,0,0,0,0,0c0.1,0,0.2,0,0.3,0.1c0,0,0,0,0,0c0,0,0,0,0,0
			c0.1,0,0.2,0,0.3-0.1c0,0,0.1,0,0.1,0c0.1,0,0.1,0,0.2-0.1l53.1-30.7c0,0,0,0,0,0l0,0c0,0,0,0,0,0c0.1-0.1,0.2-0.1,0.2-0.2
			c0,0,0,0,0,0c0,0,0-0.1,0.1-0.1c0,0,0-0.1,0.1-0.1c0,0,0,0,0.1-0.1c0,0,0,0,0-0.1c0,0,0-0.1,0.1-0.2c0-0.1,0-0.1,0-0.2
			c0-0.1,0-0.1,0-0.2c0,0,0,0,0-0.1v-84.5l52.4-30.3v56.6v26.4c0,0,0,0,0,0.1c0,0.1,0,0.2,0,0.2c0,0.1,0,0.2,0.1,0.2c0,0,0,0,0,0.1
			c0.1,0.1,0.1,0.2,0.2,0.2c0,0,0,0,0,0c0.1,0.1,0.2,0.2,0.4,0.2c0,0,0.1,0,0.1,0c0.1,0.1,0.3,0.1,0.4,0.1c0,0,0,0,0,0c0,0,0,0,0,0
			c0,0,0,0,0,0c0.1,0,0.3,0,0.4-0.1c0,0,0.1,0,0.1,0c0,0,0.1,0,0.1,0l21-12.1v58.2L969.3,771.2z M913.7,806.2v47.5l-36.6-21.1v-5.2
			L913.7,806.2z M759.4,791.3l89.3-276.7l36.9,21.3l-89.5,277.3c0,0.1,0,0.1,0,0.2c0,0.1,0,0.1,0,0.2v56.2l-36.6-21.1V791.3z
			 M910.2,478.3l36.6,21.1l-59.7,34.4l-36.6-21.1L910.2,478.3z M930.8,604.8l36.6,21.1L915,656.3l-12.2-7l11-34.6L930.8,604.8z
			 M971.2,687l19.1,11l-19.1,11V687z M902,651.7l11.7,6.8v82.3l-33.9-19.6L902,651.7z M879.1,723.6l33.4,19.3l-48.5,28L879.1,723.6z
			"/>
		<path class="st7" d="M1839.7,823.1c0-0.1,0-0.1,0-0.2v-61.1c0,0,0,0,0-0.1c0-0.1,0-0.1,0-0.2c0-0.1,0-0.1,0-0.2
			c0-0.1,0-0.1-0.1-0.1c0,0,0,0,0-0.1c0,0,0,0-0.1-0.1c0,0-0.1-0.1-0.1-0.1c0,0-0.1-0.1-0.1-0.1c0,0-0.1-0.1-0.1-0.1c0,0,0,0-0.1,0
			l-22.2-12.8v-84.5c0,0,0,0,0-0.1c0-0.1,0-0.1,0-0.2c0-0.1,0-0.1,0-0.2c0-0.1,0-0.1-0.1-0.1c0,0,0,0,0-0.1c0,0,0,0-0.1-0.1
			c0,0-0.1-0.1-0.1-0.1c0,0-0.1-0.1-0.1-0.1c0,0-0.1-0.1-0.1-0.1c0,0,0,0-0.1,0l-54.9-31.7c0,0-0.1,0-0.1,0c-0.1,0-0.2-0.1-0.2-0.1
			c-0.1,0-0.2,0-0.2,0c-0.1,0-0.2,0-0.2,0c-0.1,0-0.2,0-0.2,0.1c0,0-0.1,0-0.1,0l-32.5,18.8l68.5-135.8c0,0,0-0.1,0-0.1
			c0-0.1,0-0.1,0.1-0.2c0,0,0-0.1,0-0.1c0-0.1,0-0.1,0-0.2c0-0.1,0-0.1,0-0.2c0,0,0-0.1,0-0.1c0-0.1,0-0.1-0.1-0.2c0,0,0-0.1,0-0.1
			c0,0,0,0-0.1-0.1c0,0,0-0.1-0.1-0.1c0,0-0.1-0.1-0.1-0.1c-0.1,0-0.1-0.1-0.2-0.1c0,0,0,0-0.1-0.1l-62.2-35.9c0,0-0.1,0-0.1,0
			c-0.1,0-0.2-0.1-0.2-0.1c-0.1,0-0.2,0-0.2,0c-0.1,0-0.2,0-0.2,0c-0.1,0-0.2,0-0.2,0.1c0,0-0.1,0-0.1,0l-39.1,22.6c0,0,0,0-0.1,0
			c0,0-0.1,0-0.1,0.1c0,0-0.1,0.1-0.1,0.1c-0.1,0.1-0.1,0.1-0.1,0.2c0,0,0,0-0.1,0.1c0,0,0,0,0,0c0,0,0,0,0,0l-89.8,174.6
			c0,0,0,0,0,0c0,0.1,0,0.2-0.1,0.2c0,0.1,0,0.2,0,0.2c0,0,0,0,0,0v58.3c0,0.1,0,0.1,0,0.2c0,0.1,0,0.2,0.1,0.3
			c0,0.1,0.1,0.1,0.1,0.2c0,0.1,0.1,0.1,0.1,0.2c0.1,0.1,0.1,0.1,0.2,0.2c0,0,0.1,0.1,0.1,0.1l117.1,67.6v51.1c0,0.1,0,0.1,0,0.2
			c0,0.1,0,0.2,0.1,0.3c0,0.1,0.1,0.1,0.1,0.2c0,0.1,0.1,0.1,0.1,0.2c0.1,0.1,0.1,0.1,0.2,0.2c0,0,0.1,0.1,0.1,0.1l54.9,31.7
			c0,0,0,0,0,0c0,0,0.1,0,0.1,0c0,0,0.1,0,0.1,0c0,0,0,0,0,0c0.1,0,0.3,0.1,0.4,0.1c0,0,0,0,0,0s0,0,0,0s0,0,0,0s0,0,0,0
			c0.1,0,0.3,0,0.4-0.1c0,0,0,0,0,0c0,0,0.1,0,0.1,0c0,0,0.1,0,0.1,0c0,0,0,0,0,0l39.1-22.6c0,0,0.1-0.1,0.1-0.1
			c0.1-0.1,0.1-0.1,0.2-0.2c0.1-0.1,0.1-0.1,0.1-0.2c0-0.1,0.1-0.1,0.1-0.2c0-0.1,0-0.2,0.1-0.3c0-0.1,0-0.1,0-0.2v-24.7l22.2-12.8
			c0,0,0.1-0.1,0.1-0.1c0.1-0.1,0.1-0.1,0.2-0.2c0.1-0.1,0.1-0.1,0.1-0.2c0-0.1,0.1-0.1,0.1-0.2
			C1839.7,823.2,1839.7,823.1,1839.7,823.1z M1814.4,860.8l-36.6,21.1v-47.5l21,12.1c0,0,0,0,0,0c0,0,0.1,0,0.1,0c0,0,0.1,0,0.1,0
			c0,0,0,0,0.1,0c0.1,0,0.2,0.1,0.4,0.1c0,0,0,0,0,0s0,0,0,0s0,0,0,0s0,0,0,0c0.1,0,0.3,0,0.4-0.1c0,0,0,0,0,0c0,0,0.1,0,0.1,0
			c0,0,0.1,0,0.1,0c0,0,0,0,0,0l14.4-8.3V860.8z M1722.8,800.4c0-0.1,0-0.2-0.1-0.3c0-0.1-0.1-0.1-0.1-0.2c0-0.1-0.1-0.1-0.1-0.2
			c-0.1-0.1-0.1-0.1-0.2-0.2c0,0-0.1-0.1-0.1-0.1l-117.1-67.6v-57.3l89.1-173.1l60,34.6l-86.9,172.1c0,0,0,0.1,0,0.1
			c0,0.1-0.1,0.1-0.1,0.2c0,0,0,0.1,0,0.1c0,0.1,0,0.1,0,0.2c0,0.1,0,0.1,0,0.2c0,0,0,0.1,0,0.1c0,0.1,0,0.1,0.1,0.2
			c0,0,0,0.1,0,0.1c0,0,0,0.1,0.1,0.1c0,0,0,0,0.1,0.1c0,0,0,0,0.1,0.1c0.1,0.1,0.2,0.2,0.3,0.2c0,0,0,0,0,0l53.1,30.7
			c0,0,0.1,0,0.1,0c0,0,0.1,0,0.1,0c0.1,0.1,0.3,0.1,0.4,0.1c0,0,0,0,0,0s0,0,0,0c0,0,0,0,0,0c0.1,0,0.3,0,0.4-0.1c0,0,0.1,0,0.1,0
			c0.1-0.1,0.2-0.1,0.4-0.2c0,0,0,0,0,0c0.1-0.1,0.1-0.2,0.2-0.2c0,0,0,0,0-0.1c0-0.1,0.1-0.2,0.1-0.2c0-0.1,0-0.2,0-0.2
			c0,0,0,0,0-0.1v-45.2v-35.8v-2l52.4,30.3v84.5c0,0,0,0,0,0.1c0,0.1,0,0.1,0,0.2c0,0.1,0,0.1,0,0.2c0,0.1,0,0.1,0.1,0.1
			c0,0,0,0,0,0.1c0,0,0,0.1,0.1,0.1c0,0,0,0.1,0.1,0.1c0,0,0,0.1,0.1,0.1c0,0,0,0,0,0c0.1,0.1,0.2,0.1,0.2,0.2c0,0,0,0,0,0
			l22.2,12.8v58.2l-21-12.1c0,0,0,0-0.1,0c-0.1,0-0.2-0.1-0.2-0.1c-0.1,0-0.2,0-0.2,0c0,0,0,0-0.1,0c-0.1,0-0.1,0-0.1,0
			c-0.1,0-0.2,0-0.3,0.1c-0.1,0-0.1,0.1-0.2,0.1c-0.1,0-0.1,0.1-0.2,0.1c-0.1,0.1-0.1,0.1-0.2,0.2c0,0-0.1,0.1-0.1,0.1
			c0,0,0,0,0,0.1c0,0.1-0.1,0.2-0.1,0.2c0,0.1,0,0.2,0,0.2c0,0,0,0,0,0.1V882l-52.4-30.3v-51.1
			C1722.8,800.5,1722.8,800.5,1722.8,800.4z M1732.8,478.5l59.7,34.4l-36.6,21.1l-59.7-34.4L1732.8,478.5z M1760.7,633.1l52.4,30.3
			l-36.6,21.1l-52.4-30.3l1.1-0.6l0,0c0,0,0,0,0,0L1760.7,633.1z M1799.4,782.9l-20.4-11.8l36.6-21.1l20.4,11.8L1799.4,782.9z
			 M1814.4,747.9l-36.6,21.1v-82.3l36.6-21.1V747.9z M1670.9,708.8l36.6-21.1l12.8,7.4v42.3L1670.9,708.8z M1720.3,692.1l-11.1-6.4
			l11.1-22V692.1z M1720.9,653.2C1720.9,653.2,1720.9,653.2,1720.9,653.2c-0.1,0.1-0.1,0.1-0.2,0.1c0,0-0.1,0.1-0.1,0.1
			c0,0-0.1,0.1-0.1,0.1c0,0,0,0-0.1,0.1c0,0,0,0,0,0.1c0,0,0,0.1-0.1,0.2c0,0.1,0,0.1,0,0.2c0,0.1,0,0.1,0,0.2c0,0,0,0,0,0.1v3.9
			l-13.7,27.2l-35.2,20.3l85.4-169.1l35.2-20.3l-68.4,135.5L1720.9,653.2z M1815,835l-14.4,8.3v-58.2l36.6-21.1v58.2L1815,835z"/>
	</g>
</g>
</svg>
